<?xml version="1.0" encoding="UTF-8"?>
<!-- Generator: https://ezgif.com/png-to-svg -->
<svg version="1.1" xmlns="http://www.w3.org/2000/svg" width="1024" height="1024">
<path d="M0 0 C51.81 0 103.62 0 157 0 C157.33 0.99 157.66 1.98 158 3 C158.62 3.12 159.24 3.25 159.88 3.38 C162 4 162 4 163.56 6.06 C165.03 9.07 166.18 12.07 167.25 15.23 C167.96 17.21 167.96 17.21 170 19 C170.12 22.62 170.12 22.62 170 26 C170.99 26 171.98 26 173 26 C173.46 27.21 173.46 27.21 173.94 28.44 C174.76 30.89 174.76 30.89 176 32 C176.04 34 176.04 36 176 38 C176.99 38.33 177.98 38.66 179 39 C179 40.65 179 42.3 179 44 C179.99 44 180.98 44 182 44 C182 45.98 182 47.96 182 50 C182.99 50.33 183.98 50.66 185 51 C186.12 53.5 186.12 53.5 187 56 C187.33 56.33 187.66 56.66 188 57 C188.04 58.67 188.04 60.33 188 62 C188.66 62 189.32 62 190 62 C192.68 67.17 195 72.35 197.07 77.8 C198.01 80.22 198.01 80.22 200 83 C200 84.32 200 85.64 200 87 C200.66 87 201.32 87 202 87 C204.42 91.23 205.35 94.12 205 99 C205.99 99 206.98 99 208 99 C208 100.98 208 102.96 208 105 C208.99 105 209.98 105 211 105 C211 106.98 211 108.96 211 111 C211.99 111.33 212.98 111.66 214 112 C214.37 113.32 214.71 114.66 215 116 C215.66 116.33 216.32 116.66 217 117 C217 118.98 217 120.96 217 123 C217.66 123 218.32 123 219 123 C221.53 127.64 223.47 131.65 224 137 C224.66 137 225.32 137 226 137 C227.53 139.92 228.91 142.73 229.94 145.88 C231.51 150.51 233.79 154.77 236.12 159.07 C237.22 161.48 237.15 163.38 237 166 C237.99 166 238.98 166 240 166 C240 167.98 240 169.96 240 172 C240.99 172.33 241.98 172.66 243 173 C243 174.65 243 176.3 243 178 C243.99 178.33 244.98 178.66 246 179 C246 180.65 246 182.3 246 184 C246.66 184 247.32 184 248 184 C248.33 185.98 248.66 187.96 249 190 C249.66 190 250.32 190 251 190 C251.66 192.64 252.32 195.28 253 198 C253.66 198 254.32 198 255 198 C255.33 199.98 255.66 201.96 256 204 C256.66 204 257.32 204 258 204 C258 205.98 258 207.96 258 210 C258.66 210 259.32 210 260 210 C267 223.76 267 223.76 267 228 C267.66 228 268.32 228 269 228 C269.27 228.77 269.53 229.54 269.8 230.34 C270.33 231.84 270.33 231.84 270.88 233.38 C271.22 234.37 271.57 235.37 271.93 236.4 C272.85 239.1 272.85 239.1 275 241 C275.16 242.01 275.33 243.02 275.5 244.06 C275.66 245.03 275.83 246 276 247 C276.66 247.33 277.32 247.66 278 248 C278.33 249.33 278.67 250.67 279 252 C279.66 252.33 280.32 252.66 281 253 C281.33 255 281.67 257 282 259 C282.66 259.33 283.32 259.66 284 260 C284 261.65 284 263.3 284 265 C284.66 265 285.32 265 286 265 C286.3 265.75 286.61 266.5 286.92 267.27 C290.16 275.2 293.76 282.83 297.81 290.38 C299 293 299 293 299 297 C299.66 297 300.32 297 301 297 C301.33 298.98 301.66 300.96 302 303 C302.66 303 303.32 303 304 303 C304.46 304.45 304.46 304.45 304.94 305.94 C305.7 308.84 305.7 308.84 307 310 C307.04 311.67 307.04 313.33 307 315 C307.99 315 308.98 315 310 315 C310 316.98 310 318.96 310 321 C310.66 321 311.32 321 312 321 C312.33 322.98 312.66 324.96 313 327 C313.66 327 314.32 327 315 327 C315.43 328.03 315.87 329.06 316.31 330.12 C317.32 332.49 318.39 334.76 319.56 337.06 C321 340 321 340 322.06 343.31 C322.7 346.14 322.7 346.14 325 347 C325.72 348.64 326.37 350.32 327 352 C328.05 354.31 329.12 356.61 330.2 358.91 C331 361 331 361 331 364 C331.66 364 332.32 364 333 364 C333.33 364.79 333.65 365.57 333.99 366.38 C335.32 369.59 336.66 372.79 338 376 C338.32 376.77 338.64 377.53 338.96 378.32 C340.12 381.39 340.12 381.39 342 384 C342.04 385.67 342.04 387.33 342 389 C342.99 389.33 343.98 389.66 345 390 C345 391.98 345 393.96 345 396 C345.99 396.33 346.98 396.66 348 397 C350.86 400.71 351.32 403.37 351 408 C351.99 408.33 352.98 408.66 354 409 C358.18 414.57 357.48 421.36 357 428 C356.67 428.66 356.34 429.32 356 430 C355.34 430 354.68 430 354 430 C353.67 431.98 353.34 433.96 353 436 C352.34 436 351.68 436 351 436 C351 437.65 351 439.3 351 441 C350.01 441.33 349.02 441.66 348 442 C348 443.65 348 445.3 348 447 C347.01 447.33 346.02 447.66 345 448 C345 449.98 345 451.96 345 454 C344.01 454.33 343.02 454.66 342 455 C342 456.32 342 457.64 342 459 C341.34 459.33 340.68 459.66 340 460 C339.53 461.65 339.06 463.3 338.64 464.96 C337.73 467.86 336.34 470.44 334.9 473.11 C333.97 475.05 333.45 476.9 333 479 C332.34 479 331.68 479 331 479 C330.87 479.57 330.73 480.14 330.6 480.73 C330.01 482.98 329.27 485.09 328.44 487.25 C328.03 488.31 328.03 488.31 327.62 489.39 C327.42 489.92 327.21 490.45 327 491 C326.34 491 325.68 491 325 491 C324.9 491.68 324.79 492.36 324.69 493.06 C323.85 496.63 322.51 499.66 321 503 C320.34 503 319.68 503 319 503 C318.67 504.98 318.34 506.96 318 509 C317.34 509 316.68 509 316 509 C316 510.65 316 512.3 316 514 C315.01 514.33 314.02 514.66 313 515 C313 516.65 313 518.3 313 520 C312.01 520.33 311.02 520.66 310 521 C310 522.98 310 524.96 310 527 C309.01 527.33 308.02 527.66 307 528 C306.9 528.68 306.79 529.36 306.69 530.06 C305.64 534.56 303.88 538.59 301.44 542.5 C299.68 545.55 298.87 548.6 298 552 C297.34 552 296.68 552 296 552 C295.67 553.98 295.34 555.96 295 558 C294.34 558 293.68 558 293 558 C292.92 559.01 292.84 560.02 292.75 561.06 C292.26 564.55 290.99 567.03 289.12 570.03 C287.34 573.17 286.12 576.51 284.83 579.86 C284 582 284 582 283 584 C282.34 584 281.68 584 281 584 C280.67 585.65 280.34 587.3 280 589 C279.34 589 278.68 589 278 589 C278 589.66 278 590.32 278 591 C270.56 591.37 270.56 591.37 268.19 589.81 C267.8 589.21 267.4 588.62 267 588 C266.44 587.2 265.89 586.39 265.31 585.56 C264 583 264 583 264 579 C263.34 579 262.68 579 262 579 C261.69 578.23 261.37 577.45 261.05 576.66 C258.58 570.64 255.99 564.77 253 559 C250.76 554.57 248.6 550.12 246.5 545.62 C246.19 544.97 245.88 544.31 245.56 543.63 C243.95 540.17 242.46 536.73 241.19 533.12 C240.37 529.9 240.37 529.9 238 529 C238 527.02 238 525.04 238 523 C237.01 522.67 236.02 522.34 235 522 C235 520.35 235 518.7 235 517 C234.34 517 233.68 517 233 517 C232.57 515.97 232.13 514.94 231.69 513.88 C229.47 508.03 229.47 508.03 226 503 C225.96 501 225.96 499 226 497 C225.01 496.67 224.02 496.34 223 496 C221.75 493.78 221.75 493.78 220.56 490.94 C219.05 487.4 217.49 483.96 215.69 480.56 C214 477 214 477 214 473 C213.34 473 212.68 473 212 473 C211.67 472.2 211.35 471.41 211.01 470.59 C208.83 465.3 206.66 460.07 204 455 C202.45 451.9 200.9 448.8 199.38 445.69 C198.25 443.15 198.25 443.15 197 442 C196.96 440 196.96 438 197 436 C196.34 436 195.68 436 195 436 C194.67 434.02 194.34 432.04 194 430 C193.01 429.67 192.02 429.34 191 429 C191 427.35 191 425.7 191 424 C190.34 424 189.68 424 189 424 C187.1 420.37 185.28 416.84 184 412.94 C183.02 410.05 181.7 407.61 180.14 404.99 C177 399.53 174.32 393.86 172 388 C171.02 385.99 170.02 383.99 169 382 C167.45 378.9 165.9 375.8 164.38 372.69 C163.25 370.15 163.25 370.15 162 369 C161.96 367 161.96 365 162 363 C161.01 362.67 160.02 362.34 159 362 C158 359.94 158 359.94 157 357 C156.48 355.65 155.96 354.29 155.44 352.94 C154.44 350.32 153.64 347.73 153 345 C152.34 345 151.68 345 151 345 C150.66 344.18 150.32 343.36 149.98 342.52 C149.53 341.44 149.08 340.36 148.62 339.25 C148.18 338.18 147.74 337.12 147.29 336.02 C146.1 333.11 146.1 333.11 144.84 330.86 C144 329 144 329 144 325 C143.34 325 142.68 325 142 325 C139.11 319.47 137.09 314.15 136 308 C135.01 307.67 134.02 307.34 133 307 C132.32 304.67 131.65 302.34 131 300 C129.69 297.99 128.35 295.99 127 294 C126.3 292.01 125.63 290.01 125 288 C122.4 282.56 119.4 277.36 116.43 272.12 C115.02 269.05 114.67 267.31 115 264 C114.34 264 113.68 264 113 264 C110.1 260.17 109.46 256.72 109 252 C108.34 252 107.68 252 107 252 C107 250.35 107 248.7 107 247 C106.01 246.67 105.02 246.34 104 246 C103.26 244.02 102.61 242.02 102 240 C101.26 238.51 101.26 238.51 100.5 237 C99 234 99 234 97.94 230.69 C97.3 227.86 97.3 227.86 95 227 C95 225.68 95 224.36 95 223 C94.34 223 93.68 223 93 223 C92.38 221.24 92.38 221.24 91.75 219.44 C90.67 216.52 89.45 213.95 87.81 211.31 C86.04 208.08 85.57 206.59 86 203 C85.34 203 84.68 203 84 203 C81.52 198.05 81.52 198.05 79 193 C65.75 192.82 52.5 192.66 39.25 192.5 C38.26 192.49 37.27 192.48 36.24 192.46 C13.24 192.19 -9.76 191.95 -32.76 191.97 C-33.65 191.97 -34.54 191.97 -35.46 191.97 C-43.94 191.98 -52.42 191.99 -60.9 192.03 C-63.98 192.04 -67.07 192.05 -70.15 192.06 C-72.25 192.06 -74.36 192.07 -76.46 192.09 C-78.32 192.09 -78.32 192.09 -80.21 192.1 C-81.82 192.11 -81.82 192.11 -83.47 192.11 C-86 192 -86 192 -88 191 C-88 190.34 -88 189.68 -88 189 C-88.99 189 -89.98 189 -91 189 C-92.85 185.3 -91.7 180.96 -91 177 C-89.62 173.69 -89.62 173.69 -88 171 C-87.48 170.05 -86.97 169.1 -86.44 168.12 C-85.96 167.42 -85.49 166.72 -85 166 C-84.34 166 -83.68 166 -83 166 C-83.04 165.22 -83.08 164.43 -83.12 163.62 C-83 161 -83 161 -81 159 C-80.29 157.35 -79.62 155.68 -79 154 C-78.34 154 -77.68 154 -77 154 C-77.04 153.22 -77.08 152.43 -77.12 151.62 C-77 149 -77 149 -75 147 C-74.36 144.93 -74.36 144.93 -74 143 C-73.01 143 -72.02 143 -71 143 C-71.04 142.05 -71.08 141.1 -71.12 140.12 C-71 137 -71 137 -69 135 C-68.36 132.93 -68.36 132.93 -68 131 C-67.01 131 -66.02 131 -65 131 C-65.08 130.13 -65.17 129.27 -65.25 128.38 C-64.94 124.14 -63.43 122.45 -61 119 C-59.56 116.04 -58.29 113.02 -57 110 C-56.67 109.34 -56.34 108.68 -56 108 C-55.34 108 -54.68 108 -54 108 C-54.08 107.32 -54.17 106.64 -54.25 105.94 C-53.9 101.83 -52.18 99.48 -50 96 C-49.34 96 -48.68 96 -48 96 C-48.04 95.22 -48.08 94.43 -48.12 93.62 C-48 91 -48 91 -46 89 C-45.29 87.35 -44.62 85.68 -44 84 C-43.34 84 -42.68 84 -42 84 C-42.04 83.22 -42.08 82.43 -42.12 81.62 C-42 79 -42 79 -40 77 C-39.29 75.35 -38.63 73.68 -38 72 C-36.54 68.34 -35.13 65.18 -32.88 61.94 C-30.89 58.82 -30.5 56.61 -30 53 C-29.34 52.67 -28.68 52.34 -28 52 C-27.01 49.86 -27.01 49.86 -26.12 47.31 C-24.52 43.11 -22.54 39.72 -20 36 C-18.76 32.78 -18.76 32.78 -18 30 C-17.34 30 -16.68 30 -16 30 C-16 28.68 -16 27.36 -16 26 C-15.01 25.5 -15.01 25.5 -14 25 C-13.27 22.69 -12.6 20.35 -12 18 C-11.34 18 -10.68 18 -10 18 C-9.9 17.32 -9.79 16.64 -9.69 15.94 C-8.85 12.37 -7.51 9.34 -6 6 C-5.34 6 -4.68 6 -4 6 C-4 5.01 -4 4.02 -4 3 C-3.01 3 -2.02 3 -1 3 C-0.67 2.01 -0.34 1.02 0 0 Z " fill="#FDFDFD" transform="translate(427,206)"/>
<path d="M0 0 C1 -0.01 1 -0.01 2.01 -0.01 C4.24 -0.02 6.47 0.01 8.7 0.03 C10.3 0.03 11.89 0.03 13.49 0.03 C17.83 0.02 22.17 0.05 26.51 0.08 C31.04 0.1 35.57 0.1 40.1 0.11 C48.69 0.12 57.27 0.15 65.86 0.19 C75.63 0.24 85.4 0.26 95.17 0.28 C115.28 0.32 135.38 0.39 155.49 0.48 C155.82 1.47 156.15 2.46 156.49 3.48 C157.48 3.81 158.47 4.14 159.49 4.48 C159.49 6.13 159.49 7.78 159.49 9.48 C160.48 9.48 161.47 9.48 162.49 9.48 C162.49 11.46 162.49 13.44 162.49 15.48 C163.48 15.81 164.47 16.14 165.49 16.48 C166.46 18.61 166.46 18.61 167.49 21.48 C168.62 23.78 169.76 26.07 170.93 28.36 C173.29 33.01 175.47 37.67 177.49 42.48 C177.78 43.17 178.07 43.85 178.37 44.56 C178.59 45.09 178.82 45.62 179.05 46.17 C180.36 49.33 180.36 49.33 181.68 51.61 C182.71 53.98 182.63 55.92 182.49 58.48 C183.48 58.81 184.47 59.14 185.49 59.48 C185.49 61.13 185.49 62.78 185.49 64.48 C186.48 64.81 187.47 65.14 188.49 65.48 C188.49 67.13 188.49 68.78 188.49 70.48 C189.48 70.81 190.47 71.14 191.49 71.48 C192.96 75.07 193.82 78.67 194.49 82.48 C195.15 82.48 195.81 82.48 196.49 82.48 C196.78 83.62 197.07 84.75 197.36 85.92 C197.74 87.09 198.11 88.27 198.49 89.48 C199.15 89.81 199.81 90.14 200.49 90.48 C200.82 92.15 201.16 93.81 201.49 95.48 C202.15 95.81 202.81 96.14 203.49 96.48 C203.49 98.46 203.49 100.44 203.49 102.48 C204.48 102.81 205.47 103.14 206.49 103.48 C208.51 107.46 209.49 109.99 209.49 114.48 C210.15 114.48 210.81 114.48 211.49 114.48 C212.31 116.37 213.12 118.27 213.93 120.17 C214.38 121.22 214.83 122.28 215.3 123.37 C216.34 126.1 217.02 128.6 217.49 131.48 C218.48 131.81 219.47 132.14 220.49 132.48 C221.17 134.81 221.84 137.14 222.49 139.48 C223.81 141.49 225.15 143.49 226.49 145.48 C226.86 147.14 227.2 148.81 227.49 150.48 C228.15 150.81 228.81 151.14 229.49 151.48 C229.82 153.15 230.16 154.81 230.49 156.48 C231.15 156.81 231.81 157.14 232.49 157.48 C232.49 159.46 232.49 161.44 232.49 163.48 C233.48 163.81 234.47 164.14 235.49 164.48 C237.81 168.26 238.88 171.04 238.49 175.48 C239.15 175.48 239.81 175.48 240.49 175.48 C240.82 177.46 241.15 179.44 241.49 181.48 C242.15 181.48 242.81 181.48 243.49 181.48 C243.82 182.27 244.14 183.05 244.48 183.86 C245.81 187.07 247.15 190.27 248.49 193.48 C248.78 194.19 249.08 194.9 249.38 195.63 C251.75 201.99 251.75 201.99 255.49 207.48 C255.53 209.48 255.53 211.48 255.49 213.48 C256.48 213.48 257.47 213.48 258.49 213.48 C258.76 214.16 259.03 214.84 259.3 215.54 C260.18 217.71 261.1 219.85 262.05 221.98 C263.25 224.89 264.02 227.39 264.49 230.48 C265.15 230.48 265.81 230.48 266.49 230.48 C266.9 231.66 267.31 232.83 267.74 234.04 C268.8 236.9 269.99 239.49 271.55 242.11 C273.49 245.48 273.49 245.48 274.42 248.31 C275.52 251.58 276.91 254.48 278.49 257.54 C280.34 261.14 282.03 264.71 283.49 268.48 C284 269.64 284.52 270.79 285.05 271.98 C286.25 274.89 287.02 277.39 287.49 280.48 C288.15 280.48 288.81 280.48 289.49 280.48 C289.92 282.18 289.92 282.18 290.36 283.92 C290.74 285.09 291.11 286.27 291.49 287.48 C292.15 287.81 292.81 288.14 293.49 288.48 C293.82 290.15 294.16 291.81 294.49 293.48 C295.15 293.81 295.81 294.14 296.49 294.48 C296.49 296.46 296.49 298.44 296.49 300.48 C297.48 300.81 298.47 301.14 299.49 301.48 C299.49 303.13 299.49 304.78 299.49 306.48 C300.48 306.81 301.47 307.14 302.49 307.48 C302.49 309.13 302.49 310.78 302.49 312.48 C303.15 312.48 303.81 312.48 304.49 312.48 C304.82 314.46 305.15 316.44 305.49 318.48 C306.15 318.48 306.81 318.48 307.49 318.48 C307.77 319.18 308.05 319.89 308.34 320.61 C311.22 327.72 314.44 334.54 317.94 341.35 C319.7 344.91 321.13 348.5 322.49 352.23 C323.27 354.64 323.27 354.64 325.49 355.48 C325.49 357.46 325.49 359.44 325.49 361.48 C326.48 361.81 327.47 362.14 328.49 362.48 C328.49 364.13 328.49 365.78 328.49 367.48 C329.48 367.81 330.47 368.14 331.49 368.48 C332.96 372.07 333.82 375.67 334.49 379.48 C335.15 379.48 335.81 379.48 336.49 379.48 C336.9 380.66 337.31 381.83 337.74 383.04 C339.01 386.44 340.59 389.45 342.45 392.57 C345.68 398.49 347.79 404.97 349.49 411.48 C350.15 411.48 350.81 411.48 351.49 411.48 C351.49 413.46 351.49 415.44 351.49 417.48 C352.15 417.48 352.81 417.48 353.49 417.48 C354.98 420.47 354.6 423.18 354.49 426.48 C354.16 427.47 353.83 428.46 353.49 429.48 C352.83 429.48 352.17 429.48 351.49 429.48 C351.4 430.13 351.32 430.79 351.23 431.46 C350.23 435.53 348.49 439.09 346.68 442.86 C346.33 443.59 345.99 444.32 345.64 445.07 C343.99 448.52 342.29 451.89 340.36 455.19 C338.74 458.04 337.5 460.73 336.36 463.79 C335.28 466.71 334.7 468.27 332.49 470.48 C331.75 472.13 331.07 473.8 330.43 475.48 C328.54 480.38 328.54 480.38 327.49 482.48 C326.83 482.48 326.17 482.48 325.49 482.48 C325.55 483.66 325.55 483.66 325.61 484.86 C325.49 487.48 325.49 487.48 323.49 489.48 C322.78 491.13 322.11 492.8 321.49 494.48 C320.83 494.48 320.17 494.48 319.49 494.48 C319.49 496.46 319.49 498.44 319.49 500.48 C318.83 500.81 318.17 501.14 317.49 501.48 C316.8 503.18 316.18 504.92 315.61 506.67 C314.06 511.15 312.16 514.56 309.49 518.48 C308.42 520.95 307.45 523.45 306.49 525.96 C305.05 529.59 303.29 533.02 301.49 536.48 C299.31 540.76 297.35 545.06 295.49 549.48 C294.83 549.48 294.17 549.48 293.49 549.48 C293.16 551.13 292.83 552.78 292.49 554.48 C291.83 554.48 291.17 554.48 290.49 554.48 C290.16 556.79 289.83 559.1 289.49 561.48 C288.83 561.48 288.17 561.48 287.49 561.48 C287.16 563.46 286.83 565.44 286.49 567.48 C285.83 567.48 285.17 567.48 284.49 567.48 C284.57 568.32 284.64 569.17 284.72 570.04 C284.44 574.23 282.91 577.08 280.8 580.61 C280.29 581.52 280.29 581.52 279.77 582.45 C277.52 586.31 275.2 588.98 271.49 591.48 C268.99 592.04 268.99 592.04 266.49 591.48 C262.21 588.12 260.25 584.58 258.49 579.48 C258.49 578.16 258.49 576.84 258.49 575.48 C257.83 575.48 257.17 575.48 256.49 575.48 C256.22 574.8 255.95 574.12 255.68 573.42 C253.69 567.54 253.69 567.54 250.49 562.48 C250.45 560.81 250.45 559.15 250.49 557.48 C249.5 557.15 248.51 556.82 247.49 556.48 C246.13 552.55 245.23 548.57 244.49 544.48 C243.83 544.48 243.17 544.48 242.49 544.48 C242.06 543.28 241.62 542.09 241.18 540.86 C239.83 537.26 238.23 533.9 236.49 530.48 C234.67 526.49 233.15 522.83 232.49 518.48 C231.83 518.48 231.17 518.48 230.49 518.48 C230.17 517.7 229.86 516.91 229.54 516.1 C227.17 510.3 224.68 504.87 221.49 499.48 C220.79 497.83 220.12 496.16 219.49 494.48 C216.8 486.99 216.8 486.99 212.49 480.48 C212.45 478.48 212.45 476.48 212.49 474.48 C211.5 474.15 210.51 473.82 209.49 473.48 C209.49 471.83 209.49 470.18 209.49 468.48 C208.5 468.15 207.51 467.82 206.49 467.48 C205.02 463.89 204.16 460.29 203.49 456.48 C202.83 456.48 202.17 456.48 201.49 456.48 C201.09 455.33 200.68 454.19 200.27 453 C198.57 448.48 196.38 444.33 194.05 440.11 C191.07 434.6 188.34 429.18 186.24 423.27 C185.53 421.28 185.53 421.28 183.49 419.48 C183.36 416.36 183.36 416.36 183.49 413.48 C182.5 413.15 181.51 412.82 180.49 412.48 C177.62 408.77 177.17 406.12 177.49 401.48 C176.5 401.15 175.51 400.82 174.49 400.48 C174.49 398.83 174.49 397.18 174.49 395.48 C173.5 395.15 172.51 394.82 171.49 394.48 C171.49 392.83 171.49 391.18 171.49 389.48 C170.83 389.48 170.17 389.48 169.49 389.48 C168.81 388.24 168.15 386.99 167.49 385.73 C167.12 385.03 166.75 384.34 166.36 383.62 C165.49 381.48 165.49 381.48 165.49 377.48 C164.83 377.48 164.17 377.48 163.49 377.48 C160.86 372.41 158.58 367.33 156.5 362 C155.21 358.77 153.79 355.61 152.36 352.44 C151.34 350.14 150.41 347.82 149.49 345.48 C146.8 337.99 146.8 337.99 142.49 331.48 C142.45 329.48 142.45 327.48 142.49 325.48 C141.5 325.15 140.51 324.82 139.49 324.48 C139.49 323.16 139.49 321.84 139.49 320.48 C138.5 320.15 137.51 319.82 136.49 319.48 C136.49 317.5 136.49 315.52 136.49 313.48 C135.83 313.48 135.17 313.48 134.49 313.48 C133.96 312.35 133.43 311.21 132.88 310.04 C132.17 308.52 131.45 307 130.74 305.48 C130.22 304.37 130.22 304.37 129.68 303.23 C127.97 299.57 126.22 295.93 124.39 292.32 C122.7 288.96 121.21 285.54 119.8 282.04 C118.57 278.5 118.57 278.5 116.49 275.48 C116.45 273.81 116.45 272.15 116.49 270.48 C115.5 270.15 114.51 269.82 113.49 269.48 C113.49 267.83 113.49 266.18 113.49 264.48 C112.83 264.48 112.17 264.48 111.49 264.48 C111.16 262.5 110.83 260.52 110.49 258.48 C109.83 258.48 109.17 258.48 108.49 258.48 C108.06 256.78 108.06 256.78 107.61 255.04 C107.24 253.87 106.87 252.69 106.49 251.48 C105.83 251.15 105.17 250.82 104.49 250.48 C103.79 248.83 103.12 247.16 102.49 245.48 C102.16 245.15 101.83 244.82 101.49 244.48 C101.45 242.48 101.45 240.48 101.49 238.48 C100.5 238.15 99.51 237.82 98.49 237.48 C96.17 233.7 95.1 230.92 95.49 226.48 C94.83 226.48 94.17 226.48 93.49 226.48 C91.38 222.41 89.41 218.43 87.86 214.11 C86.78 210.5 86.78 210.5 84.49 208.48 C83.12 204.86 82.16 201.29 81.49 197.48 C80.83 197.48 80.17 197.48 79.49 197.48 C78.13 194.77 78.42 192.47 78.49 189.48 C77.5 189.15 76.51 188.82 75.49 188.48 C75.49 187.16 75.49 185.84 75.49 184.48 C74.5 184.15 73.51 183.82 72.49 183.48 C71.13 179.55 70.23 175.57 69.49 171.48 C68.83 171.48 68.17 171.48 67.49 171.48 C67.08 170.31 66.66 169.13 66.24 167.92 C64.97 164.51 63.39 161.5 61.52 158.38 C59.92 155.43 58.78 152.32 57.57 149.18 C56.01 145.29 54.23 141.52 52.44 137.73 C51.49 135.48 51.49 135.48 51.49 133.48 C50.83 133.48 50.17 133.48 49.49 133.48 C49.49 131.5 49.49 129.52 49.49 127.48 C48.5 127.15 47.51 126.82 46.49 126.48 C46.12 125.16 45.78 123.82 45.49 122.48 C44.5 121.99 44.5 121.99 43.49 121.48 C43.49 119.5 43.49 117.52 43.49 115.48 C42.83 115.48 42.17 115.48 41.49 115.48 C41.07 114.64 40.65 113.79 40.21 112.92 C39.06 110.62 37.9 108.31 36.74 106.01 C36.13 104.81 35.53 103.62 34.93 102.42 C34.62 101.82 34.32 101.22 34.01 100.6 C32.33 97.28 30.87 93.94 29.49 90.48 C28.5 88.47 27.5 86.48 26.49 84.48 C25.24 81.93 24.02 79.36 22.8 76.79 C22.48 76.13 22.16 75.47 21.83 74.78 C20.44 71.84 19.49 69.78 19.49 66.48 C18.83 66.48 18.17 66.48 17.49 66.48 C17.37 65.68 17.24 64.87 17.11 64.04 C16.91 63.2 16.7 62.35 16.49 61.48 C15.83 61.15 15.17 60.82 14.49 60.48 C14.49 58.5 14.49 56.52 14.49 54.48 C13 53.99 13 53.99 11.49 53.48 C11.49 52.16 11.49 50.84 11.49 49.48 C10 48.99 10 48.99 8.49 48.48 C8.49 46.5 8.49 44.52 8.49 42.48 C7.83 42.48 7.17 42.48 6.49 42.48 C6.16 40.83 5.83 39.18 5.49 37.48 C4.83 37.48 4.17 37.48 3.49 37.48 C3.08 36.28 2.66 35.09 2.24 33.86 C0.8 29.99 -1.2 26.9 -3.51 23.48 C-4.19 21.49 -4.86 19.49 -5.51 17.48 C-6.2 16.3 -6.91 15.14 -7.64 13.98 C-9.6 10.31 -10.15 8.56 -9.51 4.48 C-7.15 -0.04 -4.89 -0.02 0 0 Z " fill="#FCFDFD" transform="translate(44.51091003417969,205.51898193359375)"/>
<path d="M0 0 C21.09 -0.05 42.18 -0.08 63.26 -0.1 C73.05 -0.11 82.84 -0.13 92.64 -0.15 C101.17 -0.17 109.7 -0.18 118.23 -0.19 C122.75 -0.19 127.27 -0.2 131.79 -0.21 C136.04 -0.22 140.29 -0.23 144.54 -0.23 C146.1 -0.23 147.66 -0.23 149.23 -0.24 C151.35 -0.25 153.48 -0.25 155.61 -0.24 C156.8 -0.24 157.99 -0.24 159.22 -0.25 C162 0 162 0 164 2 C164.23 4.75 164.23 4.75 164.19 8 C164.18 9.61 164.18 9.61 164.17 11.25 C164 14 164 14 163 16 C162.34 16 161.68 16 161 16 C160.67 17.65 160.34 19.3 160 21 C159.34 21 158.68 21 158 21 C158.08 21.7 158.16 22.4 158.25 23.12 C157.92 26.98 156.2 28.83 154 32 C152.95 34.17 152.01 36.37 151.06 38.59 C149.98 41.05 148.79 43.42 147.56 45.81 C144.72 51.41 142.35 57.18 140 63 C139.34 63 138.68 63 138 63 C137.85 64.05 137.85 64.05 137.69 65.12 C136.9 68.42 135.59 71.01 134 74 C132.38 77.1 131.01 79.98 129.94 83.31 C129 86 129 86 127 87 C126.28 88.64 125.61 90.31 125 92 C124.34 92 123.68 92 123 92 C123.1 92.8 123.21 93.61 123.31 94.44 C122.94 98.66 121.57 100.98 119.44 104.56 C117.95 107.08 116.62 109.64 115.31 112.25 C114.92 113.04 114.52 113.83 114.11 114.64 C113.37 116.21 112.68 117.81 112.04 119.42 C110.85 122.37 109.45 125.17 108 128 C103.24 137.38 103.24 137.38 99 147 C98.34 147 97.68 147 97 147 C96.67 148.98 96.34 150.96 96 153 C95.34 153 94.68 153 94 153 C94 154.65 94 156.3 94 158 C93.01 158.33 92.02 158.66 91 159 C91 160.65 91 162.3 91 164 C90.01 164.33 89.02 164.66 88 165 C88.08 165.67 88.15 166.34 88.23 167.03 C87.92 171.04 86.22 174.04 84.31 177.5 C83.8 178.48 83.8 178.48 83.28 179.47 C80.41 184.78 77.07 188.62 72 192 C69.25 192.25 69.25 192.25 65.84 192.26 C64.55 192.27 63.26 192.27 61.93 192.28 C60.5 192.28 59.07 192.28 57.63 192.27 C56.13 192.28 54.62 192.28 53.11 192.29 C49.02 192.3 44.92 192.3 40.83 192.3 C37.41 192.3 33.99 192.31 30.57 192.31 C22.5 192.32 14.43 192.32 6.36 192.32 C-1.96 192.31 -10.28 192.32 -18.6 192.34 C-25.74 192.36 -32.89 192.37 -40.03 192.36 C-44.3 192.36 -48.57 192.36 -52.83 192.38 C-56.85 192.39 -60.86 192.39 -64.88 192.38 C-66.35 192.37 -67.82 192.38 -69.29 192.38 C-83.4 192.46 -83.4 192.46 -89 189 C-91.86 184.72 -90.74 181.91 -89.84 177.01 C-88.86 173.5 -87.48 171.3 -85.18 168.54 C-83.42 166.25 -82.74 163.75 -82 161 C-81.34 161 -80.68 161 -80 161 C-79.9 160.32 -79.79 159.64 -79.69 158.94 C-77.92 151.39 -73.89 144.13 -69.94 137.5 C-67.79 133.82 -66.41 130.01 -65 126 C-64.34 126 -63.68 126 -63 126 C-62.9 125.48 -62.79 124.97 -62.69 124.44 C-61.4 119.88 -59.58 115.86 -56.94 111.94 C-54.9 109.12 -54.9 109.12 -54 106 C-53 103 -53 103 -50.94 100 C-48.9 96.84 -48.51 94.66 -48 91 C-47.34 90.67 -46.68 90.34 -46 90 C-45.22 88.17 -44.52 86.31 -43.88 84.44 C-43.35 82.92 -43.35 82.92 -42.8 81.37 C-42.54 80.59 -42.27 79.81 -42 79 C-41.34 79 -40.68 79 -40 79 C-39.9 78.32 -39.79 77.64 -39.69 76.94 C-38.85 73.37 -37.51 70.34 -36 67 C-35.34 67 -34.68 67 -34 67 C-33.9 66.3 -33.79 65.6 -33.69 64.88 C-32.9 61.58 -31.59 58.99 -30 56 C-29.44 54.89 -28.89 53.77 -28.31 52.62 C-27.88 51.76 -27.45 50.89 -27 50 C-26.34 50 -25.68 50 -25 50 C-25 48.35 -25 46.7 -25 45 C-24.01 44.67 -23.02 44.34 -22 44 C-21.67 42.02 -21.34 40.04 -21 38 C-20.34 38 -19.68 38 -19 38 C-19 36.35 -19 34.7 -19 33 C-18.01 32.67 -17.02 32.34 -16 32 C-16 30.35 -16 28.7 -16 27 C-15.01 26.67 -14.02 26.34 -13 26 C-13 24.35 -13 22.7 -13 21 C-12.01 20.67 -11.02 20.34 -10 20 C-9.81 18.95 -9.81 18.95 -9.62 17.88 C-8.96 14.82 -8.03 11.95 -7 9 C-6.34 9 -5.68 9 -5 9 C-4.67 7.35 -4.34 5.7 -4 4 C-3.01 3.67 -2.02 3.34 -1 3 C-0.67 2.01 -0.34 1.02 0 0 Z " fill="#FDFDFD" transform="translate(812,206)"/>
<path d="M0 0 C0.81 0.01 1.61 0.02 2.45 0.03 C10.93 0.18 19.41 0.53 27.88 0.82 C51.23 1.62 74.53 1.29 97.87 0.61 C101.82 0.49 105.78 0.39 109.73 0.3 C111.31 0.27 112.89 0.23 114.47 0.18 C116.79 0.12 119.12 0.07 121.45 0.03 C122.49 -0 122.49 -0 123.56 -0.04 C127.93 -0.09 130.77 0.29 134.06 3.25 C136.61 8.93 137.5 13.51 137.45 19.69 C137.46 20.91 137.46 20.91 137.47 22.15 C137.48 24.84 137.47 27.54 137.47 30.24 C137.47 32.18 137.48 34.12 137.49 36.07 C137.51 41.33 137.5 46.59 137.5 51.85 C137.5 56.24 137.5 60.63 137.51 65.03 C137.52 75.39 137.52 85.75 137.51 96.12 C137.5 106.81 137.51 117.5 137.54 128.19 C137.56 137.37 137.57 146.56 137.56 155.74 C137.56 161.23 137.56 166.71 137.58 172.19 C137.59 177.34 137.59 182.5 137.57 187.65 C137.57 189.54 137.57 191.43 137.58 193.32 C137.59 195.9 137.58 198.48 137.56 201.07 C137.58 202.19 137.58 202.19 137.59 203.33 C137.52 208.4 136.52 211.51 133.06 215.25 C130.33 215.99 130.33 215.99 127.13 215.98 C125.92 216 124.71 216.01 123.46 216.02 C122.12 216 120.78 215.98 119.44 215.96 C118.02 215.96 116.61 215.97 115.19 215.98 C111.35 215.99 107.52 215.96 103.68 215.92 C99.66 215.89 95.65 215.9 91.63 215.89 C84.89 215.89 78.14 215.86 71.4 215.81 C62.74 215.75 54.09 215.73 45.43 215.73 C37.99 215.72 30.55 215.69 23.11 215.66 C20.71 215.66 18.32 215.65 15.93 215.64 C12.17 215.64 8.41 215.61 4.65 215.59 C3.27 215.58 1.89 215.57 0.51 215.57 C-1.37 215.57 -3.26 215.55 -5.14 215.53 C-6.19 215.52 -7.24 215.52 -8.33 215.51 C-10.94 215.25 -10.94 215.25 -13.94 213.25 C-17.02 206.89 -17.32 201.55 -17.16 194.57 C-17.14 193.46 -17.13 192.35 -17.12 191.22 C-17.08 187.97 -17.03 184.72 -16.97 181.47 C-16.91 177.42 -16.87 173.36 -16.83 169.31 C-16.76 161.72 -16.67 154.12 -16.58 146.53 C-16.06 103.75 -16.06 103.75 -15.94 60.97 C-15.94 59.68 -15.94 59.68 -15.95 58.37 C-15.96 50.31 -15.99 42.26 -16.05 34.2 C-16.07 31.31 -16.08 28.43 -16.09 25.54 C-16.1 23.6 -16.12 21.66 -16.14 19.72 C-16.17 8.65 -16.17 8.65 -13.94 3.25 C-9.52 0.02 -5.3 -0.15 0 0 Z " fill="#FDFDFD" transform="translate(445.9375,581.75)"/>
<path d="M0 0 C1.14 -0.01 2.28 -0.01 3.45 -0.02 C6.19 0.09 8.66 0.47 11.32 1.09 C11.32 2.08 11.32 3.07 11.32 4.09 C12.31 4.42 13.3 4.75 14.32 5.09 C14.39 31.77 14.44 58.45 14.48 85.12 C14.49 97.51 14.51 109.9 14.55 122.28 C14.58 133.07 14.6 143.87 14.6 154.66 C14.61 160.38 14.62 166.09 14.64 171.81 C14.66 177.19 14.66 182.57 14.66 187.94 C14.66 189.92 14.67 191.9 14.68 193.87 C14.69 196.57 14.69 199.26 14.68 201.95 C14.69 202.74 14.7 203.53 14.71 204.34 C14.68 207.26 14.65 209.53 13.16 212.08 C10.53 213.53 8.49 213.46 5.49 213.45 C4.28 213.46 3.06 213.46 1.81 213.47 C0.46 213.46 -0.89 213.45 -2.24 213.43 C-3.66 213.43 -5.08 213.43 -6.5 213.44 C-10.35 213.44 -14.21 213.42 -18.06 213.4 C-22.09 213.38 -26.12 213.38 -30.15 213.37 C-37.77 213.36 -45.4 213.34 -53.03 213.31 C-61.72 213.28 -70.4 213.26 -79.08 213.24 C-96.95 213.21 -114.81 213.16 -132.68 213.09 C-133.01 212.1 -133.34 211.11 -133.68 210.09 C-134.67 209.76 -135.66 209.43 -136.68 209.09 C-136.75 182.68 -136.8 156.26 -136.84 129.85 C-136.85 117.58 -136.87 105.32 -136.91 93.05 C-136.94 82.36 -136.96 71.68 -136.96 60.99 C-136.97 55.33 -136.98 49.67 -137 44.01 C-137.02 38.68 -137.02 33.36 -137.02 28.03 C-137.02 26.07 -137.03 24.12 -137.04 22.16 C-137.05 19.49 -137.05 16.83 -137.04 14.16 C-137.05 13.38 -137.06 12.6 -137.07 11.79 C-137.02 6.58 -137.02 6.58 -135.32 4.16 C-130.03 0.72 -124.61 0.84 -118.55 0.93 C-117.17 0.94 -117.17 0.94 -115.77 0.95 C-113.76 0.96 -111.75 0.98 -109.74 1 C-104.18 1.05 -98.62 1.07 -93.05 1.09 C-91.85 1.09 -90.65 1.1 -89.41 1.1 C-70.52 1.14 -51.62 0.76 -32.73 0.45 C-8.01 0.04 -8.01 0.04 0 0 Z " fill="#FDFEFD" transform="translate(183.6796875,583.90625)"/>
<path d="M0 0 C0.7 -0 1.4 -0 2.13 -0 C4.48 -0 6.83 0 9.18 0.01 C10.86 0.01 12.55 0.01 14.23 0.01 C18.81 0.01 23.39 0.01 27.96 0.02 C32.74 0.03 37.53 0.03 42.31 0.03 C51.36 0.03 60.42 0.04 69.48 0.05 C79.79 0.06 90.09 0.06 100.4 0.07 C121.61 0.08 142.82 0.1 164.03 0.12 C164.23 0.67 164.42 1.21 164.63 1.78 C165.02 2.85 165.02 2.85 165.43 3.95 C165.82 5.02 165.82 5.02 166.22 6.11 C167.23 8.62 168.6 10.82 170.03 13.12 C170.72 14.78 171.38 16.45 172.03 18.12 C173.08 20.43 174.15 22.73 175.22 25.03 C176.03 27.12 176.03 27.12 176.03 30.12 C176.69 30.12 177.35 30.12 178.03 30.12 C178.53 31.49 178.53 31.49 179.05 32.89 C179.5 34.08 179.94 35.27 180.4 36.5 C181.06 38.27 181.06 38.27 181.74 40.08 C182.82 43.17 182.82 43.17 185.03 45.12 C185.15 47.75 185.15 47.75 185.03 50.12 C186.02 50.45 187.01 50.78 188.03 51.12 C188.91 53.06 188.91 53.06 189.71 55.68 C191.48 60.89 193.65 65.76 196.09 70.68 C196.43 71.39 196.77 72.09 197.12 72.81 C198.81 76.18 199.83 77.99 203.03 80.12 C203.36 82.12 203.69 84.12 204.03 86.12 C205.02 86.78 206.01 87.44 207.03 88.12 C206.7 89.77 206.37 91.42 206.03 93.12 C207.02 93.12 208.01 93.12 209.03 93.12 C209.03 94.44 209.03 95.76 209.03 97.12 C209.69 97.12 210.35 97.12 211.03 97.12 C214.47 106.53 214.47 106.53 214.03 111.12 C214.69 111.12 215.35 111.12 216.03 111.12 C216.36 113.1 216.69 115.08 217.03 117.12 C218.02 117.45 219.01 117.78 220.03 118.12 C221.64 121.35 222.42 124.57 223.03 128.12 C224.02 128.12 225.01 128.12 226.03 128.12 C226.03 130.1 226.03 132.08 226.03 134.12 C226.63 134.16 227.23 134.2 227.86 134.23 C230.03 135.12 230.03 135.12 231.51 137.85 C231.93 138.99 232.35 140.13 232.78 141.31 C233.21 142.44 233.63 143.56 234.07 144.73 C235.01 148.05 235.21 150.69 235.03 154.12 C236.02 154.45 237.01 154.78 238.03 155.12 C238.87 157.01 238.87 157.01 239.53 159.37 C240.62 163 241.98 165.91 244.03 169.12 C244.03 169.78 244.03 170.44 244.03 171.12 C244.69 171.12 245.35 171.12 246.03 171.12 C246.36 173.43 246.69 175.74 247.03 178.12 C248.02 178.45 249.01 178.78 250.03 179.12 C250.03 180.44 250.03 181.76 250.03 183.12 C251.02 183.45 252.01 183.78 253.03 184.12 C253.03 185.77 253.03 187.42 253.03 189.12 C253.69 189.12 254.35 189.12 255.03 189.12 C257.28 194.48 258.39 198.32 258.03 204.12 C258.69 204.12 259.35 204.12 260.03 204.12 C260.03 206.43 260.03 208.74 260.03 211.12 C261.02 211.12 262.01 211.12 263.03 211.12 C263.03 213.43 263.03 215.74 263.03 218.12 C263.69 218.12 264.35 218.12 265.03 218.12 C265.27 218.65 265.51 219.18 265.76 219.73 C267.75 223.92 269.61 226.92 273.03 230.12 C275.28 233.19 276.32 236.05 277.28 239.68 C278.79 245.05 281.36 249.41 284.24 254.15 C291.03 265.45 291.03 265.45 291.03 270.12 C292.02 270.45 293.01 270.78 294.03 271.12 C296.35 274.9 297.42 277.68 297.03 282.12 C297.69 282.12 298.35 282.12 299.03 282.12 C299.03 283.44 299.03 284.76 299.03 286.12 C299.69 286.12 300.35 286.12 301.03 286.12 C302.21 288.3 303.37 290.49 304.53 292.68 C305.03 293.6 305.03 293.6 305.54 294.53 C307.8 298.88 308.39 302.12 308.03 307.12 C309.02 307.45 310.01 307.78 311.03 308.12 C312.84 312.88 313.23 317.06 313.03 322.12 C314.02 322.12 315.01 322.12 316.03 322.12 C316.03 323.77 316.03 325.42 316.03 327.12 C316.69 327.12 317.35 327.12 318.03 327.12 C318.22 329.17 318.42 331.22 318.61 333.27 C318.75 333.88 318.89 334.49 319.03 335.12 C319.69 335.45 320.35 335.78 321.03 336.12 C321.03 338.1 321.03 340.08 321.03 342.12 C322.02 342.45 323.01 342.78 324.03 343.12 C324.03 344.44 324.03 345.76 324.03 347.12 C325.02 347.45 326.01 347.78 327.03 348.12 C327.03 349.77 327.03 351.42 327.03 353.12 C327.96 353.21 327.96 353.21 328.9 353.31 C331.03 354.12 331.03 354.12 332.09 356.31 C332.4 357.24 332.71 358.16 333.03 359.12 C333.56 360.05 334.1 360.98 334.65 361.93 C336.4 365.98 336.25 368.74 336.03 373.12 C336.69 373.12 337.35 373.12 338.03 373.12 C338.03 375.1 338.03 377.08 338.03 379.12 C339.35 379.45 340.67 379.78 342.03 380.12 C342.03 381.77 342.03 383.42 342.03 385.12 C342.69 385.12 343.35 385.12 344.03 385.12 C344.36 386.44 344.69 387.76 345.03 389.12 C345.69 389.12 346.35 389.12 347.03 389.12 C347.03 392.09 347.03 395.06 347.03 398.12 C346.04 398.12 345.05 398.12 344.03 398.12 C344.03 397.13 344.03 396.14 344.03 395.12 C343.37 395.12 342.71 395.12 342.03 395.12 C341.71 394.35 341.4 393.57 341.07 392.78 C338.6 386.76 336.02 380.89 333.03 375.12 C330.79 370.69 328.63 366.24 326.53 361.75 C326.22 361.09 325.91 360.43 325.59 359.75 C323.98 356.29 322.49 352.85 321.21 349.25 C320.39 346.02 320.39 346.02 318.03 345.12 C318.03 343.14 318.03 341.16 318.03 339.12 C317.04 338.79 316.05 338.46 315.03 338.12 C315.03 336.47 315.03 334.82 315.03 333.12 C314.37 333.12 313.71 333.12 313.03 333.12 C312.59 332.09 312.16 331.06 311.71 330 C309.5 324.15 309.5 324.15 306.03 319.12 C305.99 317.12 305.98 315.12 306.03 313.12 C305.04 312.79 304.05 312.46 303.03 312.12 C301.78 309.9 301.78 309.9 300.59 307.06 C299.07 303.52 297.52 300.08 295.71 296.68 C294.03 293.12 294.03 293.12 294.03 289.12 C293.37 289.12 292.71 289.12 292.03 289.12 C291.7 288.32 291.37 287.53 291.04 286.71 C288.86 281.42 286.68 276.19 284.03 271.12 C282.48 268.02 280.93 264.92 279.4 261.81 C278.28 259.27 278.28 259.27 277.03 258.12 C276.99 256.12 276.98 254.12 277.03 252.12 C276.37 252.12 275.71 252.12 275.03 252.12 C274.7 250.14 274.37 248.16 274.03 246.12 C273.04 245.79 272.05 245.46 271.03 245.12 C271.03 243.47 271.03 241.82 271.03 240.12 C270.37 240.12 269.71 240.12 269.03 240.12 C267.13 236.49 265.3 232.96 264.03 229.06 C263.04 226.17 261.72 223.73 260.17 221.11 C257.03 215.65 254.35 209.98 252.03 204.12 C251.04 202.11 250.04 200.11 249.03 198.12 C247.48 195.02 245.93 191.92 244.4 188.81 C243.28 186.27 243.28 186.27 242.03 185.12 C241.99 183.12 241.98 181.12 242.03 179.12 C241.04 178.79 240.05 178.46 239.03 178.12 C238.03 176.06 238.03 176.06 237.03 173.12 C236.51 171.77 235.99 170.41 235.46 169.06 C234.46 166.44 233.67 163.85 233.03 161.12 C232.37 161.12 231.71 161.12 231.03 161.12 C230.69 160.3 230.35 159.48 230 158.64 C229.56 157.56 229.11 156.48 228.65 155.37 C228.21 154.3 227.77 153.24 227.32 152.14 C226.13 149.23 226.13 149.23 224.86 146.98 C224.03 145.12 224.03 145.12 224.03 141.12 C223.37 141.12 222.71 141.12 222.03 141.12 C219.13 135.59 217.11 130.27 216.03 124.12 C215.04 123.79 214.05 123.46 213.03 123.12 C212.34 120.79 211.68 118.46 211.03 116.12 C209.71 114.11 208.38 112.11 207.03 110.12 C206.32 108.13 205.66 106.13 205.03 104.12 C202.43 98.68 199.43 93.48 196.45 88.24 C195.05 85.17 194.7 83.43 195.03 80.12 C194.37 80.12 193.71 80.12 193.03 80.12 C190.13 76.29 189.49 72.84 189.03 68.12 C188.37 68.12 187.71 68.12 187.03 68.12 C187.03 66.47 187.03 64.82 187.03 63.12 C186.04 62.79 185.05 62.46 184.03 62.12 C183.29 60.14 182.64 58.14 182.03 56.12 C181.28 54.64 181.28 54.64 180.53 53.12 C179.03 50.12 179.03 50.12 177.96 46.81 C177.33 43.98 177.33 43.98 175.03 43.12 C175.03 41.8 175.03 40.48 175.03 39.12 C174.37 39.12 173.71 39.12 173.03 39.12 C172.41 37.36 172.41 37.36 171.78 35.56 C170.7 32.64 169.47 30.07 167.84 27.43 C166.07 24.2 165.59 22.71 166.03 19.12 C165.37 19.12 164.71 19.12 164.03 19.12 C162.38 15.82 160.73 12.52 159.03 9.12 C145.78 8.94 132.53 8.78 119.28 8.62 C118.28 8.61 117.29 8.6 116.27 8.58 C93.27 8.31 70.27 8.07 47.27 8.09 C46.38 8.09 45.49 8.09 44.57 8.09 C36.09 8.1 27.61 8.11 19.13 8.15 C16.04 8.16 12.96 8.17 9.88 8.18 C7.77 8.18 5.67 8.2 3.57 8.21 C1.71 8.21 1.71 8.21 -0.18 8.22 C-1.8 8.23 -1.8 8.23 -3.45 8.23 C-5.97 8.12 -5.97 8.12 -7.97 7.12 C-7.97 6.13 -7.97 5.14 -7.97 4.12 C-8.63 3.79 -9.29 3.46 -9.97 3.12 C-10.3 2.46 -10.63 1.8 -10.97 1.12 C-7.3 -0.04 -3.84 -0 0 0 Z " fill="#E9E9E9" transform="translate(346.97283935546875,389.87974548339844)"/>
<path d="M0 0 C1.5 1 1.5 1 3 3 C3.42 6.45 3.59 9.83 2 13 C1.34 13 0.68 13 0 13 C-0.33 14.65 -0.66 16.3 -1 18 C-1.66 18 -2.32 18 -3 18 C-2.92 18.7 -2.84 19.4 -2.75 20.12 C-3.08 23.98 -4.8 25.83 -7 29 C-8.05 31.17 -8.99 33.37 -9.94 35.59 C-11.02 38.05 -12.21 40.42 -13.44 42.81 C-16.28 48.41 -18.65 54.18 -21 60 C-21.66 60 -22.32 60 -23 60 C-23.15 61.05 -23.15 61.05 -23.31 62.12 C-24.1 65.42 -25.41 68.01 -27 71 C-28.62 74.1 -29.99 76.98 -31.06 80.31 C-32 83 -32 83 -34 84 C-34.72 85.64 -35.39 87.31 -36 89 C-36.66 89 -37.32 89 -38 89 C-37.9 89.8 -37.79 90.61 -37.69 91.44 C-38.06 95.66 -39.43 97.98 -41.56 101.56 C-43.05 104.08 -44.38 106.64 -45.69 109.25 C-46.08 110.04 -46.48 110.83 -46.89 111.64 C-47.63 113.21 -48.32 114.81 -48.96 116.42 C-50.15 119.37 -51.55 122.17 -53 125 C-57.76 134.38 -57.76 134.38 -62 144 C-62.66 144 -63.32 144 -64 144 C-64.33 145.98 -64.66 147.96 -65 150 C-65.66 150 -66.32 150 -67 150 C-67 151.65 -67 153.3 -67 155 C-67.99 155.33 -68.98 155.66 -70 156 C-70 157.65 -70 159.3 -70 161 C-70.99 161.33 -71.98 161.66 -73 162 C-72.92 162.67 -72.85 163.34 -72.77 164.03 C-73.08 168.04 -74.78 171.04 -76.69 174.5 C-77.2 175.48 -77.2 175.48 -77.72 176.47 C-80.59 181.78 -83.93 185.62 -89 189 C-91.75 189.25 -91.75 189.25 -95.16 189.26 C-96.45 189.27 -97.74 189.27 -99.07 189.28 C-100.5 189.28 -101.93 189.28 -103.37 189.27 C-104.87 189.28 -106.38 189.28 -107.89 189.29 C-111.98 189.3 -116.08 189.3 -120.17 189.3 C-123.59 189.3 -127.01 189.31 -130.43 189.31 C-138.5 189.32 -146.57 189.32 -154.64 189.32 C-162.96 189.31 -171.28 189.32 -179.6 189.34 C-186.74 189.36 -193.89 189.37 -201.03 189.36 C-205.3 189.36 -209.57 189.36 -213.83 189.38 C-217.85 189.39 -221.86 189.39 -225.88 189.38 C-227.35 189.37 -228.82 189.38 -230.29 189.38 C-243.99 189.46 -243.99 189.46 -250 186 C-250 184.35 -250 182.7 -250 181 C-196.87 181 -143.74 181 -89 181 C-89 179.02 -89 177.04 -89 175 C-88.34 175 -87.68 175 -87 175 C-86.01 172.03 -86.01 172.03 -85 169 C-84.34 169 -83.68 169 -83 169 C-83 167.35 -83 165.7 -83 164 C-82.34 164 -81.68 164 -81 164 C-81 161.69 -81 159.38 -81 157 C-80.01 157.33 -79.02 157.66 -78 158 C-78.08 156.95 -78.16 155.9 -78.25 154.81 C-77.96 150.44 -77.15 148.97 -74 146 C-73.01 146 -72.02 146 -71 146 C-70.67 144.35 -70.34 142.7 -70 141 C-69.34 141 -68.68 141 -68 141 C-67.67 139.02 -67.34 137.04 -67 135 C-66.34 135 -65.68 135 -65 135 C-65 133.35 -65 131.7 -65 130 C-64.01 130 -63.02 130 -62 130 C-62.04 128.89 -62.08 127.77 -62.12 126.62 C-62 123 -62 123 -60 121 C-59.18 118.43 -58.54 115.83 -57.88 113.21 C-57.59 112.48 -57.3 111.75 -57 111 C-56.01 110.67 -55.02 110.34 -54 110 C-53.08 107.24 -53.08 107.24 -52.5 104 C-51.84 100.69 -51.84 100.69 -51 98 C-50.01 97.67 -49.02 97.34 -48 97 C-48 95.35 -48 93.7 -48 92 C-47.01 91.67 -46.02 91.34 -45 91 C-43.88 88.66 -43.88 88.66 -43 86 C-42.35 84.66 -41.69 83.32 -41 82 C-40.34 82 -39.68 82 -39 82 C-38.9 81.13 -38.79 80.27 -38.69 79.38 C-37.96 75.8 -36.68 73.22 -35 70 C-34.3 68.01 -33.62 66.01 -33 64 C-32.34 64 -31.68 64 -31 64 C-30.86 63.03 -30.71 62.06 -30.56 61.06 C-30 58 -30 58 -29 57 C-28.63 54.67 -28.3 52.34 -28 50 C-27.01 50 -26.02 50 -25 50 C-24.9 49.28 -24.79 48.56 -24.69 47.81 C-23.93 44.71 -22.65 42.73 -21 40 C-20.5 38.74 -20.02 37.47 -19.56 36.19 C-17.76 31.19 -15.76 26.09 -12.31 22 C-10.25 18.86 -10.31 15.72 -10 12 C-9.34 12 -8.68 12 -8 12 C-7.71 11.42 -7.42 10.84 -7.12 10.25 C-6.08 8.17 -5.04 6.08 -4 4 C-2.68 4 -1.36 4 0 4 C0 2.68 0 1.36 0 0 Z " fill="#E5E4E5" transform="translate(973,209)"/>
<path d="M0 0 C0.72 0.1 1.44 0.2 2.18 0.3 C3.24 0.43 3.24 0.43 4.31 0.56 C6.87 1.14 9.25 1.88 11.73 2.72 C12.94 3.13 12.94 3.13 14.18 3.55 C14.8 3.75 15.42 3.96 16.05 4.18 C16.12 30.86 16.18 57.53 16.21 84.21 C16.23 96.6 16.25 108.98 16.28 121.37 C16.31 132.16 16.33 142.95 16.34 153.75 C16.34 159.46 16.35 165.18 16.37 170.9 C16.39 176.27 16.4 181.65 16.39 187.03 C16.39 189.01 16.4 190.98 16.41 192.96 C16.43 195.65 16.42 198.34 16.42 201.04 C16.42 201.83 16.43 202.61 16.44 203.43 C16.42 206.35 16.39 208.61 14.88 211.17 C12.32 212.59 10.37 212.55 7.44 212.55 C6.28 212.56 5.11 212.57 3.9 212.58 C2.62 212.57 1.34 212.56 0.02 212.55 C-1.35 212.55 -2.71 212.56 -4.07 212.56 C-7.78 212.57 -11.48 212.56 -15.19 212.55 C-19.06 212.54 -22.94 212.54 -26.81 212.54 C-33.32 212.55 -39.83 212.53 -46.34 212.52 C-53.87 212.49 -61.39 212.49 -68.92 212.5 C-76.15 212.5 -83.39 212.5 -90.63 212.49 C-93.71 212.48 -96.79 212.48 -99.87 212.48 C-103.5 212.48 -107.13 212.48 -110.76 212.46 C-112.73 212.45 -114.69 212.46 -116.66 212.46 C-117.83 212.45 -119 212.45 -120.21 212.44 C-121.22 212.44 -122.24 212.44 -123.29 212.43 C-125.99 212.18 -127.64 211.56 -129.95 210.18 C-128.96 208.2 -128.96 208.2 -127.95 206.18 C-83.07 205.85 -38.19 205.52 8.05 205.18 C7.72 202.21 7.39 199.24 7.05 196.18 C6.97 193.38 6.92 190.61 6.93 187.81 C6.93 186.62 6.93 186.62 6.93 185.41 C6.93 182.78 6.94 180.16 6.94 177.53 C6.94 175.64 6.94 173.75 6.94 171.85 C6.94 166.74 6.95 161.62 6.95 156.5 C6.96 151.14 6.96 145.78 6.96 140.43 C6.96 130.29 6.97 120.15 6.98 110.02 C6.99 98.48 7 86.93 7 75.39 C7.01 51.65 7.03 27.92 7.05 4.18 C3.09 3.85 -0.87 3.52 -4.95 3.18 C-1.95 0.18 -1.95 0.18 0 0 Z " fill="#E0E0E0" transform="translate(181.9453125,584.8203125)"/>
<path d="M0 0 C1.65 0 3.3 0 5 0 C7.43 5.73 8.44 10.25 8.39 16.44 C8.4 17.66 8.4 17.66 8.4 18.9 C8.42 21.59 8.41 24.29 8.4 26.99 C8.41 28.93 8.42 30.87 8.42 32.82 C8.44 38.08 8.44 43.34 8.44 48.6 C8.43 52.99 8.44 57.38 8.44 61.78 C8.46 72.14 8.46 82.5 8.45 92.87 C8.43 103.56 8.45 114.25 8.48 124.94 C8.5 134.12 8.5 143.31 8.5 152.49 C8.49 157.98 8.5 163.46 8.51 168.94 C8.53 174.09 8.53 179.25 8.51 184.4 C8.5 186.29 8.51 188.18 8.52 190.07 C8.53 192.65 8.52 195.23 8.5 197.82 C8.52 198.94 8.52 198.94 8.53 200.08 C8.46 205.15 7.44 208.25 4 212 C1.36 212.75 1.36 212.75 -1.71 212.75 C-2.88 212.76 -4.04 212.78 -5.24 212.79 C-7.15 212.77 -7.15 212.77 -9.1 212.74 C-10.46 212.75 -11.82 212.76 -13.18 212.77 C-16.87 212.79 -20.55 212.77 -24.24 212.74 C-28.11 212.72 -31.97 212.73 -35.83 212.73 C-42.32 212.73 -48.81 212.71 -55.3 212.67 C-62.8 212.63 -70.29 212.62 -77.79 212.64 C-85.01 212.65 -92.22 212.64 -99.44 212.61 C-102.51 212.6 -105.57 212.6 -108.64 212.61 C-112.26 212.61 -115.87 212.59 -119.49 212.56 C-121.45 212.55 -123.4 212.56 -125.35 212.56 C-132.11 212.48 -136.51 212.06 -142 208 C-142 207.34 -142 206.68 -142 206 C-132.88 205.26 -123.81 204.84 -114.66 204.79 C-113.39 204.78 -112.12 204.77 -110.81 204.76 C-107.42 204.74 -104.03 204.72 -100.64 204.7 C-97.45 204.68 -94.25 204.65 -91.05 204.63 C-81.74 204.56 -72.43 204.5 -63.12 204.44 C-42.29 204.29 -21.46 204.15 0 204 C0 137.67 0 71.34 0 3 C-0.99 2.5 -0.99 2.5 -2 2 C-1.34 2 -0.68 2 0 2 C0 1.34 0 0.68 0 0 Z " fill="#E8E7E7" transform="translate(575,585)"/>
<path d="M0 0 C0.99 0 1.98 0 3 0 C3 1.32 3 2.64 3 4 C3.99 4 4.98 4 6 4 C6.31 9 5.7 12.49 3.75 17.11 C2.96 18.97 2.96 18.97 2.56 20.89 C2.01 22.97 1.29 24.74 0.36 26.69 C0.04 27.38 -0.29 28.07 -0.63 28.79 C-0.98 29.52 -1.33 30.25 -1.69 31 C-2.05 31.76 -2.41 32.52 -2.78 33.3 C-5.3 38.59 -7.9 43.83 -10.55 49.06 C-13.15 54.32 -15.57 59.66 -18 65 C-18.66 65 -19.32 65 -20 65 C-19.96 65.78 -19.92 66.57 -19.88 67.38 C-20 70 -20 70 -22 72 C-22.71 73.65 -23.38 75.32 -24 77 C-24.66 77 -25.32 77 -26 77 C-26 78.98 -26 80.96 -26 83 C-26.99 83.5 -26.99 83.5 -28 84 C-28.69 85.7 -29.3 87.44 -29.88 89.19 C-31.43 93.66 -33.33 97.08 -36 101 C-37.07 103.47 -38.03 105.96 -39 108.48 C-40.44 112.1 -42.2 115.54 -44 119 C-46.18 123.28 -48.14 127.58 -50 132 C-50.66 132 -51.32 132 -52 132 C-52.33 133.65 -52.66 135.3 -53 137 C-53.66 137 -54.32 137 -55 137 C-55.33 139.31 -55.66 141.62 -56 144 C-56.66 144 -57.32 144 -58 144 C-58.5 146.97 -58.5 146.97 -59 150 C-59.66 150 -60.32 150 -61 150 C-60.92 150.84 -60.85 151.69 -60.77 152.55 C-61.05 156.75 -62.57 159.6 -64.69 163.12 C-65.03 163.73 -65.37 164.34 -65.72 164.96 C-67.97 168.83 -70.29 171.5 -74 174 C-76.5 174.56 -76.5 174.56 -79 174 C-83.26 170.65 -85.35 167.13 -87 162 C-86.69 159.06 -86.69 159.06 -86 157 C-84.68 157 -83.36 157 -82 157 C-80 163.62 -80 163.62 -80 167 C-79.01 167 -78.02 167 -77 167 C-76.5 165.02 -76.5 165.02 -76 163 C-75.34 163 -74.68 163 -74 163 C-74.04 162.2 -74.08 161.39 -74.12 160.56 C-73.98 156.3 -73.57 151.99 -72 148 C-71.01 147.67 -70.02 147.34 -69 147 C-69 145.35 -69 143.7 -69 142 C-68.34 141.67 -67.68 141.34 -67 141 C-66.67 140.01 -66.34 139.02 -66 138 C-65.67 137.01 -65.34 136.02 -65 135 C-64.34 134.67 -63.68 134.34 -63 134 C-62.31 132.34 -61.65 130.67 -61 129 C-60.23 127.82 -60.23 127.82 -59.44 126.62 C-57.69 123.43 -57.35 120.6 -57 117 C-55.51 116.5 -55.51 116.5 -54 116 C-54.09 114.48 -54.09 114.48 -54.19 112.94 C-53.97 108.45 -52.95 105.99 -51 102 C-50.34 102 -49.68 102 -49 102 C-48.5 100.02 -48.5 100.02 -48 98 C-47.34 98 -46.68 98 -46 98 C-45.88 97.2 -45.75 96.39 -45.62 95.56 C-45.42 94.72 -45.21 93.87 -45 93 C-44.34 92.67 -43.68 92.34 -43 92 C-42.01 89.93 -42.01 89.93 -41.12 87.44 C-38.98 81.84 -36.59 76.51 -33.38 71.44 C-31.67 68.41 -30.86 65.36 -30 62 C-29.34 62 -28.68 62 -28 62 C-28 61.01 -28 60.02 -28 59 C-27.57 58.59 -27.13 58.17 -26.69 57.75 C-24.75 55.74 -23.97 53.71 -22.95 51.14 C-21.8 48.55 -20.41 46.15 -19 43.69 C-16.56 39.31 -14.93 35.15 -13.74 30.29 C-12.85 27.54 -11.52 25.46 -10 23 C-8.4 20.08 -6.86 17.13 -5.31 14.19 C-4.9 13.4 -4.48 12.61 -4.05 11.8 C-3.03 9.87 -2.02 7.93 -1 6 C-0.01 6 0.98 6 2 6 C2 4.35 2 2.7 2 1 C1.01 0.5 1.01 0.5 0 0 Z " fill="#DEDEDE" transform="translate(390,623)"/>
<path d="M0 0 C0.99 0 1.98 0 3 0 C5.89 3.77 7.37 8.29 9.04 12.7 C10 15.21 10 15.21 12 18 C12 19.32 12 20.64 12 22 C12.66 22 13.32 22 14 22 C16.42 26.23 17.35 29.12 17 34 C17.99 34 18.98 34 20 34 C20 35.98 20 37.96 20 40 C20.99 40 21.98 40 23 40 C23 41.98 23 43.96 23 46 C24.49 46.5 24.49 46.5 26 47 C26.37 48.32 26.71 49.66 27 51 C27.66 51.33 28.32 51.66 29 52 C29 53.98 29 55.96 29 58 C29.66 58 30.32 58 31 58 C33.53 62.64 35.47 66.65 36 72 C36.66 72 37.32 72 38 72 C39.53 74.92 40.91 77.73 41.94 80.88 C43.51 85.51 45.79 89.77 48.12 94.07 C49.22 96.48 49.15 98.38 49 101 C49.99 101 50.98 101 52 101 C52 102.98 52 104.96 52 107 C52.99 107.33 53.98 107.66 55 108 C55 109.65 55 111.3 55 113 C55.99 113.33 56.98 113.66 58 114 C58 115.65 58 117.3 58 119 C58.66 119 59.32 119 60 119 C60.33 120.98 60.66 122.96 61 125 C61.66 125 62.32 125 63 125 C63.99 128.96 63.99 128.96 65 133 C65.66 133 66.32 133 67 133 C67.33 134.98 67.66 136.96 68 139 C68.66 139 69.32 139 70 139 C70 140.98 70 142.96 70 145 C70.66 145 71.32 145 72 145 C79 158.76 79 158.76 79 163 C79.66 163 80.32 163 81 163 C81.27 163.77 81.53 164.54 81.8 165.34 C82.16 166.34 82.51 167.34 82.88 168.38 C83.22 169.37 83.57 170.37 83.93 171.4 C84.85 174.1 84.85 174.1 87 176 C87.16 177.01 87.33 178.02 87.5 179.06 C87.66 180.03 87.83 181 88 182 C88.66 182.33 89.32 182.66 90 183 C90.33 184.33 90.67 185.67 91 187 C91.66 187.33 92.32 187.66 93 188 C93.33 190 93.67 192 94 194 C94.66 194.33 95.32 194.66 96 195 C96 196.65 96 198.3 96 200 C96.66 200 97.32 200 98 200 C100.61 205.36 102.49 210.03 103 216 C101.35 215.67 99.7 215.34 98 215 C98 214.01 98 213.02 98 212 C97.01 212 96.02 212 95 212 C95 210.02 95 208.04 95 206 C94.01 206 93.02 206 92 206 C92 204.35 92 202.7 92 201 C91.01 201 90.02 201 89 201 C88.67 199.02 88.34 197.04 88 195 C87.01 194.67 86.02 194.34 85 194 C85 192.02 85 190.04 85 188 C84.01 187.67 83.02 187.34 82 187 C80.88 183.69 80.88 183.69 80 180 C79.69 178.79 79.69 178.79 79.38 177.56 C79.25 177.05 79.13 176.53 79 176 C78.34 176 77.68 176 77 176 C76.88 175.36 76.75 174.72 76.62 174.06 C76.42 173.38 76.21 172.7 76 172 C75.34 171.67 74.68 171.34 74 171 C73.59 168.68 73.26 166.34 73 164 C72.01 164 71.02 164 70 164 C69.6 162.45 69.6 162.45 69.19 160.88 C68.46 158.28 67.68 156.41 66.38 154 C64.75 150.46 64.77 147.85 65 144 C64.01 144 63.02 144 62 144 C61.73 142.99 61.46 141.98 61.19 140.94 C60.44 138.28 59.52 135.82 58.38 133.31 C57 130 57 130 57 126 C55.68 126 54.36 126 53 126 C53 124.02 53 122.04 53 120 C52.01 119.67 51.02 119.34 50 119 C50 117.35 50 115.7 50 114 C49.34 114 48.68 114 48 114 C44.58 107.61 41.55 101.45 42 94 C41.01 93.67 40.02 93.34 39 93 C37.7 90.32 36.88 87.6 36 84.75 C35.31 81.87 35.31 81.87 33 81 C33 79.68 33 78.36 33 77 C32.01 76.67 31.02 76.34 30 76 C28.94 72.89 28.16 69.85 27.56 66.62 C27.38 66.09 27.19 65.55 27 65 C25.51 64.5 25.51 64.5 24 64 C22.65 61.31 22.65 61.31 21.38 58 C20.14 54.23 20.14 54.23 18 51 C17.96 49 17.96 47 18 45 C16.51 44.5 16.51 44.5 15 44 C15 42.35 15 40.7 15 39 C14.34 39 13.68 39 13 39 C12.69 37.87 12.38 36.73 12.06 35.56 C11.37 32.21 11.37 32.21 10 31 C9.96 29.33 9.96 27.67 10 26 C9.01 26 8.02 26 7 26 C6.73 25.09 6.46 24.19 6.19 23.25 C5.23 20.06 5.23 20.06 3.44 18.16 C1.57 15.36 1.69 13.57 1.81 10.25 C1.84 9.27 1.87 8.28 1.89 7.27 C1.93 6.52 1.96 5.77 2 5 C1.34 5 0.68 5 0 5 C0 3.35 0 1.7 0 0 Z " fill="#E9EAE8" transform="translate(615,271)"/>
<path d="M0 0 C0.99 0.33 1.98 0.66 3 1 C3.03 2.46 3.05 3.92 3.06 5.38 C3.07 6.19 3.09 7 3.1 7.84 C3 10 3 10 2 12 C1.34 12 0.68 12 0 12 C-0.33 13.98 -0.66 15.96 -1 18 C-1.66 18 -2.32 18 -3 18 C-3 19.65 -3 21.3 -3 23 C-4.49 23.5 -4.49 23.5 -6 24 C-6 25.65 -6 27.3 -6 29 C-7.49 29.5 -7.49 29.5 -9 30 C-9 31.98 -9 33.96 -9 36 C-10.49 36.5 -10.49 36.5 -12 37 C-12 38.32 -12 39.64 -12 41 C-12.99 41.5 -12.99 41.5 -14 42 C-14.47 43.65 -14.94 45.3 -15.36 46.96 C-16.27 49.86 -17.66 52.44 -19.1 55.11 C-20.03 57.05 -20.55 58.9 -21 61 C-21.66 61 -22.32 61 -23 61 C-23.13 61.57 -23.27 62.14 -23.4 62.73 C-23.99 64.98 -24.73 67.09 -25.56 69.25 C-25.83 69.96 -26.1 70.66 -26.38 71.39 C-26.58 71.92 -26.79 72.45 -27 73 C-27.66 73 -28.32 73 -29 73 C-29.1 73.68 -29.21 74.36 -29.31 75.06 C-30.15 78.63 -31.49 81.66 -33 85 C-33.66 85 -34.32 85 -35 85 C-35.33 86.98 -35.66 88.96 -36 91 C-36.66 91 -37.32 91 -38 91 C-38 92.65 -38 94.3 -38 96 C-38.99 96.33 -39.98 96.66 -41 97 C-41 98.65 -41 100.3 -41 102 C-41.99 102.33 -42.98 102.66 -44 103 C-44 104.98 -44 106.96 -44 109 C-44.99 109.33 -45.98 109.66 -47 110 C-47.1 110.68 -47.21 111.36 -47.31 112.06 C-48.36 116.56 -50.12 120.59 -52.56 124.5 C-54.32 127.55 -55.13 130.6 -56 134 C-56.66 134 -57.32 134 -58 134 C-58.5 136.97 -58.5 136.97 -59 140 C-59.66 140 -60.32 140 -61 140 C-61.08 141.01 -61.16 142.02 -61.25 143.06 C-61.74 146.55 -63.01 149.03 -64.88 152.03 C-66.66 155.17 -67.88 158.51 -69.17 161.86 C-70 164 -70 164 -71 166 C-71.66 166 -72.32 166 -73 166 C-73.33 167.65 -73.66 169.3 -74 171 C-74.66 171 -75.32 171 -76 171 C-76 171.66 -76 172.32 -76 173 C-80.75 172.57 -82.92 171.67 -86 168 C-85.22 167.81 -84.43 167.63 -83.62 167.44 C-80.68 166.21 -80.68 166.21 -79.94 162.88 C-79.63 161.6 -79.32 160.32 -79 159 C-77.8 156.27 -76.39 153.64 -75 151 C-71.45 144.18 -71.45 144.18 -68.56 137.06 C-67.01 132.65 -64.68 128.73 -62.3 124.71 C-60.89 121.78 -60.39 119.21 -60 116 C-59.34 116 -58.68 116 -58 116 C-57.86 115.38 -57.71 114.76 -57.56 114.12 C-57 112 -57 112 -56 110 C-55.34 110 -54.68 110 -54 110 C-54.08 109.32 -54.16 108.64 -54.25 107.94 C-53.9 103.83 -52.18 101.48 -50 98 C-49.34 98 -48.68 98 -48 98 C-48 96.35 -48 94.7 -48 93 C-47.01 93 -46.02 93 -45 93 C-45 91.02 -45 89.04 -45 87 C-44.34 87 -43.68 87 -43 87 C-42.92 86.32 -42.84 85.64 -42.75 84.94 C-41.96 81.85 -40.63 79.5 -38.99 76.78 C-37.61 74.3 -36.79 71.71 -36 69 C-35.34 69 -34.68 69 -34 69 C-34 67.35 -34 65.7 -34 64 C-32.02 63.5 -32.02 63.5 -30 63 C-30 61.02 -30 59.04 -30 57 C-29.34 57 -28.68 57 -28 57 C-28.15 55.7 -28.15 55.7 -28.31 54.38 C-27.9 49.92 -25.89 48.31 -23 45 C-22.29 42.31 -22.29 42.31 -22 40 C-21.34 39.67 -20.68 39.34 -20 39 C-19.28 37.36 -18.61 35.69 -18 34 C-17.34 34 -16.68 34 -16 34 C-15.67 32.02 -15.34 30.04 -15 28 C-14.34 28 -13.68 28 -13 28 C-13 26.35 -13 24.7 -13 23 C-12.01 23 -11.02 23 -10 23 C-10.04 22.22 -10.08 21.43 -10.12 20.62 C-10 18 -10 18 -8 16 C-6.98 13.43 -6.09 10.83 -5.2 8.21 C-4 6 -4 6 -1.87 5.19 C-0.94 5.1 -0.94 5.1 0 5 C0 3.35 0 1.7 0 0 Z " fill="#E2E2E2" transform="translate(781,624)"/>
<path d="M0 0 C0.7 -0 1.4 -0 2.12 -0 C4.47 -0.01 6.82 -0.01 9.17 -0 C10.85 -0 12.54 -0.01 14.22 -0.01 C18.79 -0.01 23.36 -0.01 27.94 -0.01 C32.72 -0 37.49 -0.01 42.27 -0.01 C50.3 -0.01 58.32 -0.01 66.34 -0 C75.63 0 84.91 0 94.2 -0.01 C102.17 -0.01 110.13 -0.01 118.1 -0.01 C122.86 -0.01 127.62 -0.01 132.38 -0.01 C136.85 -0.01 141.33 -0.01 145.8 -0 C147.45 -0 149.09 -0 150.74 -0.01 C152.97 -0.01 155.21 -0.01 157.45 0 C158.7 0 159.96 0 161.25 0 C164.03 0.13 164.03 0.13 165.03 1.13 C165.43 3.65 165.78 6.16 166.1 8.69 C166.23 9.76 166.23 9.76 166.37 10.84 C166.6 12.6 166.82 14.37 167.03 16.13 C167.69 16.13 168.35 16.13 169.03 16.13 C169.03 18.11 169.03 20.09 169.03 22.13 C170.02 22.13 171.01 22.13 172.03 22.13 C172.36 24.44 172.69 26.75 173.03 29.13 C172.37 29.46 171.71 29.79 171.03 30.13 C171.03 29.47 171.03 28.81 171.03 28.13 C170.04 27.8 169.05 27.47 168.03 27.13 C165.88 23.9 165.83 22.84 166.03 19.13 C165.37 19.13 164.71 19.13 164.03 19.13 C162.38 15.83 160.73 12.53 159.03 9.13 C145.78 8.95 132.53 8.79 119.28 8.63 C118.29 8.61 117.3 8.6 116.28 8.59 C93.28 8.31 70.28 8.08 47.27 8.1 C46.38 8.1 45.49 8.1 44.58 8.1 C36.1 8.1 27.62 8.12 19.13 8.16 C16.05 8.17 12.97 8.17 9.88 8.18 C7.78 8.19 5.68 8.2 3.57 8.21 C1.72 8.22 1.72 8.22 -0.17 8.22 C-1.79 8.23 -1.79 8.23 -3.44 8.24 C-5.97 8.13 -5.97 8.13 -7.97 7.13 C-7.97 6.14 -7.97 5.15 -7.97 4.13 C-8.63 3.8 -9.29 3.47 -9.97 3.13 C-10.3 2.47 -10.63 1.81 -10.97 1.13 C-7.29 -0.03 -3.83 0 0 0 Z " fill="#D3D4D3" transform="translate(346.9661102294922,389.8730163574219)"/>
<path d="M0 0 C20.14 -0.02 40.28 -0.04 60.42 -0.05 C69.77 -0.06 79.12 -0.06 88.48 -0.08 C96.62 -0.09 104.77 -0.09 112.92 -0.09 C117.24 -0.1 121.56 -0.1 125.87 -0.11 C129.93 -0.11 133.99 -0.11 138.06 -0.11 C139.55 -0.11 141.04 -0.12 142.53 -0.12 C144.56 -0.12 146.6 -0.12 148.63 -0.12 C149.77 -0.12 150.91 -0.12 152.09 -0.12 C154.58 -0.02 156.63 0.27 159 1 C158.69 2.94 158.69 2.94 158 5 C155.17 5.94 153.37 6.13 150.44 6.12 C149.26 6.13 149.26 6.13 148.06 6.13 C146 6 146 6 144 5 C142.09 5 140.19 5.06 138.29 5.16 C137.12 5.21 135.96 5.26 134.76 5.32 C132.33 5.44 129.9 5.56 127.47 5.68 C120.89 5.98 114.64 5.95 108.11 5.04 C107.06 5.02 107.06 5.02 106 5 C105.34 5.66 104.68 6.32 104 7 C100.93 7.2 97.96 7.28 94.89 7.27 C93.94 7.28 93 7.28 92.02 7.29 C88.89 7.3 85.75 7.3 82.61 7.3 C80.44 7.3 78.26 7.31 76.08 7.31 C71.51 7.32 66.94 7.32 62.36 7.32 C56.51 7.31 50.66 7.33 44.8 7.35 C40.3 7.36 35.8 7.37 31.3 7.36 C29.14 7.36 26.99 7.37 24.83 7.38 C21.8 7.39 18.78 7.38 15.76 7.37 C14.43 7.38 14.43 7.38 13.07 7.4 C7.63 7.35 3.86 6.48 -1 4 C-0.67 2.68 -0.34 1.36 0 0 Z " fill="#D8D9D8" transform="translate(724,391)"/>
<path d="M0 0 C3.95 4.74 7 9.79 7 16 C7.66 16 8.32 16 9 16 C9.33 17.98 9.66 19.96 10 22 C10.66 22 11.32 22 12 22 C12.31 22.97 12.62 23.94 12.94 24.94 C13.7 27.84 13.7 27.84 15 29 C15.04 30.67 15.04 32.33 15 34 C15.99 34 16.98 34 18 34 C18 35.98 18 37.96 18 40 C18.66 40 19.32 40 20 40 C20.33 41.98 20.66 43.96 21 46 C21.66 46 22.32 46 23 46 C23.43 47.03 23.87 48.06 24.31 49.12 C25.32 51.49 26.39 53.76 27.56 56.06 C29 59 29 59 30.06 62.31 C30.7 65.14 30.7 65.14 33 66 C33.72 67.64 34.37 69.32 35 71 C36.05 73.31 37.12 75.61 38.2 77.91 C39 80 39 80 39 83 C39.66 83 40.32 83 41 83 C41.7 84.56 42.39 86.12 43.06 87.69 C43.45 88.56 43.83 89.43 44.22 90.32 C45.09 93.32 44.85 95.03 44 98 C43.34 98 42.68 98 42 98 C41.67 97.01 41.34 96.02 41 95 C40.07 94.54 40.07 94.54 39.12 94.06 C36.5 92.75 35.45 91.55 34 89 C33.81 86.25 33.81 86.25 34 84 C33.01 84 32.02 84 31 84 C30.69 83.2 30.38 82.39 30.06 81.56 C29.24 79.11 29.24 79.11 28 78 C27.86 75.33 27.96 72.68 28 70 C27.01 70 26.02 70 25 70 C25 68.35 25 66.7 25 65 C24.01 65 23.02 65 22 65 C22 63.02 22 61.04 22 59 C20.51 58.5 20.51 58.5 19 58 C19 56.35 19 54.7 19 53 C18.34 53 17.68 53 17 53 C16.67 51.02 16.34 49.04 16 47 C15.34 47 14.68 47 14 47 C10.57 39.71 10.57 39.71 11 35 C10.01 35 9.02 35 8 35 C8 32.36 8 29.72 8 27 C7.01 26.67 6.02 26.34 5 26 C5 24.35 5 22.7 5 21 C4.01 21 3.02 21 2 21 C2 18.69 2 16.38 2 14 C1.01 14 0.02 14 -1 14 C-2.96 9.27 -3.18 6 -2 1 C-1.34 0.67 -0.68 0.34 0 0 Z " fill="#E8E8E8" transform="translate(719,487)"/>
<path d="M0 0 C2 0 2 0 4 1 C5.06 3.69 5.06 3.69 6 7 C7.61 10.75 7.61 10.75 10 14 C10.04 16 10.04 18 10 20 C10.99 20 11.98 20 13 20 C13.27 20.68 13.54 21.36 13.81 22.06 C14.69 24.23 15.61 26.37 16.56 28.5 C17.76 31.41 18.53 33.91 19 37 C19.66 37 20.32 37 21 37 C21.41 38.18 21.82 39.35 22.25 40.56 C23.31 43.42 24.5 46.01 26.06 48.62 C27.87 51.77 28.88 54.58 30 58 C31.02 60.08 32.09 62.13 33.2 64.17 C34 66 34 66 34 69 C33.34 69 32.68 69 32 69 C31.67 69.66 31.34 70.32 31 71 C28.2 70.21 26.34 69.65 24 68 C22.47 65.14 21.8 62.13 21 59 C20.48 57.56 19.94 56.12 19.38 54.69 C18.4 52.08 17.63 49.69 17 47 C16.34 47 15.68 47 15 47 C15 46.34 15 45.68 15 45 C14.34 45 13.68 45 13 45 C11.14 41.87 10.8 39.63 11 36 C10.34 36 9.68 36 9 36 C8.5 33.9 8 31.79 7.5 29.69 C7.22 28.52 6.94 27.34 6.66 26.14 C6 23 6 23 6 20 C5.01 19.67 4.02 19.34 3 19 C-0.71 13.8 -2.58 8.4 -2 2 C-1.34 1.34 -0.68 0.68 0 0 Z " fill="#E1E1E1" transform="translate(290,399)"/>
<path d="M0 0 C0.99 0.33 1.98 0.66 3 1 C3.23 3.05 3.46 5.1 3.68 7.15 C3.82 9.01 3.82 9.01 5 10 C5.1 11.95 5.13 13.9 5.13 15.84 C5.13 17.06 5.14 18.28 5.14 19.54 C5.13 20.85 5.13 22.15 5.12 23.5 C5.12 24.81 5.12 26.13 5.12 27.48 C5.09 36.09 4.81 44.62 4.12 53.2 C4.08 54.13 4.04 55.05 4 56 C4.33 56.33 4.66 56.66 5 57 C5.1 60.07 5.13 63.13 5.11 66.2 C5.11 67.17 5.11 68.13 5.11 69.13 C5.11 72.34 5.11 75.55 5.1 78.75 C5.1 80.97 5.09 83.19 5.09 85.41 C5.09 91.26 5.08 97.11 5.07 102.96 C5.06 108.93 5.05 114.89 5.05 120.86 C5.04 132.57 5.02 144.29 5 156 C4.67 156 4.34 156 4 156 C3.67 139.5 3.34 123 3 106 C2.34 110.61 1.88 114.4 1.94 118.94 C1.95 119.9 1.96 120.85 1.96 121.84 C1.98 122.55 1.99 123.27 2 124 C1.01 124.5 1.01 124.5 0 125 C0 83.75 0 42.5 0 0 Z " fill="#D0CFCF" transform="translate(577,586)"/>
<path d="M0 0 C14.84 -0.02 29.68 -0.04 44.52 -0.05 C51.41 -0.06 58.3 -0.06 65.19 -0.08 C71.84 -0.09 78.49 -0.09 85.15 -0.09 C87.68 -0.1 90.22 -0.1 92.75 -0.11 C96.31 -0.11 99.86 -0.11 103.42 -0.11 C104.46 -0.12 105.51 -0.12 106.58 -0.12 C112.47 -0.12 118.16 0.24 124 1 C123.67 1.99 123.34 2.98 123 4 C81.75 4 40.5 4 -2 4 C-1.34 2.68 -0.68 1.36 0 0 Z " fill="#DADADB" transform="translate(442,793)"/>
<path d="M0 0 C0.99 0.33 1.98 0.66 3 1 C3 1.66 3 2.32 3 3 C3.66 3 4.32 3 5 3 C5.29 4.13 5.58 5.27 5.88 6.44 C6.25 7.61 6.62 8.79 7 10 C7.66 10.33 8.32 10.66 9 11 C9.33 12.67 9.67 14.33 10 16 C10.66 16.33 11.32 16.66 12 17 C12 18.98 12 20.96 12 23 C12.99 23.33 13.98 23.66 15 24 C17.03 27.98 18 30.51 18 35 C18.66 35 19.32 35 20 35 C20.82 36.89 21.63 38.79 22.44 40.69 C23.12 42.27 23.12 42.27 23.81 43.89 C24.85 46.62 25.54 49.12 26 52 C27.49 52.5 27.49 52.5 29 53 C29.68 55.33 30.35 57.66 31 60 C31.7 61.01 32.4 62.02 33.12 63.06 C35.24 66.38 35.37 68.14 35 72 C33.02 72.5 33.02 72.5 31 73 C31 72.01 31 71.02 31 70 C30.01 70 29.02 70 28 70 C28 68.35 28 66.7 28 65 C26.51 64.5 26.51 64.5 25 64 C25 62.35 25 60.7 25 59 C23.51 58.5 23.51 58.5 22 58 C21.05 56 21.05 56 20.31 53.56 C20.06 52.76 19.81 51.96 19.55 51.13 C19 49 19 49 19 47 C18.34 47 17.68 47 17 47 C14.2 43.35 12.77 40.5 12 36 C11.34 35.67 10.68 35.34 10 35 C9.63 32.67 9.29 30.34 9 28 C8.67 27.67 8.34 27.34 8 27 C7.96 25 7.96 23 8 21 C7.01 20.67 6.02 20.34 5 20 C1.85 16.04 1.71 12.96 2 8 C1.34 8 0.68 8 0 8 C0 5.36 0 2.72 0 0 Z " fill="#E2E2E2" transform="translate(236,285)"/>
<path d="M0 0 C1.22 0 1.22 0 2.47 0 C3.33 -0 4.18 -0.01 5.06 -0.01 C7.91 -0.02 10.75 -0.02 13.59 -0.02 C15.56 -0.02 17.52 -0.03 19.49 -0.03 C23.62 -0.04 27.75 -0.04 31.88 -0.04 C37.18 -0.04 42.48 -0.05 47.78 -0.07 C51.84 -0.08 55.91 -0.08 59.97 -0.08 C61.93 -0.08 63.88 -0.09 65.84 -0.1 C68.56 -0.11 71.29 -0.1 74.02 -0.1 C75.25 -0.1 75.25 -0.1 76.49 -0.11 C82.08 -0.08 82.08 -0.08 84.31 2.15 C72.93 2.64 72.93 2.64 61.31 3.15 C61.31 3.81 61.31 4.47 61.31 5.15 C60.75 5.11 60.18 5.07 59.6 5.02 C57.05 4.85 54.49 4.68 51.94 4.52 C51.05 4.46 50.16 4.39 49.24 4.33 C47.97 4.25 47.97 4.25 46.66 4.17 C45.88 4.12 45.09 4.07 44.28 4.01 C42.08 3.95 42.08 3.95 40.31 6.15 C37.71 6.34 35.22 6.4 32.61 6.38 C31.44 6.38 31.44 6.38 30.25 6.38 C27.71 6.37 25.17 6.35 22.63 6.33 C20.89 6.33 19.16 6.32 17.42 6.31 C4.7 6.25 -7.99 5.9 -20.69 5.15 C-20.69 4.49 -20.69 3.83 -20.69 3.15 C-19.69 3.01 -18.69 2.88 -17.66 2.74 C-16.37 2.57 -15.08 2.39 -13.75 2.21 C-12.46 2.04 -11.17 1.86 -9.85 1.68 C-6.2 1.06 -3.93 0.02 0 0 Z " fill="#C9CAC8" transform="translate(787.6867980957031,391.8533630371094)"/>
<path d="M0 0 C2.5 1.12 2.5 1.12 5 3 C5.31 6.19 5.31 6.19 5 9 C5.99 9.33 6.98 9.66 8 10 C8.97 12.13 8.97 12.13 10 15 C11.13 17.3 12.27 19.59 13.44 21.88 C15.81 26.53 17.99 31.19 20 36 C20.29 36.68 20.58 37.37 20.88 38.07 C21.1 38.61 21.33 39.14 21.56 39.69 C22.87 42.85 22.87 42.85 24.19 45.12 C25.22 47.5 25.14 49.44 25 52 C26.49 52.5 26.49 52.5 28 53 C28 54.65 28 56.3 28 58 C29.49 58.5 29.49 58.5 31 59 C31 60.65 31 62.3 31 64 C31.99 64.33 32.98 64.66 34 65 C34 67.31 34 69.62 34 72 C33.01 72.33 32.02 72.66 31 73 C30.9 72.38 30.79 71.76 30.69 71.12 C30.12 68.63 30.12 68.63 27 67 C27 65.68 27 64.36 27 63 C26.34 63 25.68 63 25 63 C24.88 62.03 24.75 61.06 24.62 60.06 C24.42 59.05 24.21 58.04 24 57 C23.34 56.67 22.68 56.34 22 56 C21.5 53.5 21.5 53.5 21 51 C20.34 50.67 19.68 50.34 19 50 C19 48.02 19 46.04 19 44 C17.68 44 16.36 44 15 44 C15 42.35 15 40.7 15 39 C14.34 39 13.68 39 13 39 C10.39 34.01 8.62 29.07 7 23.69 C6.3 20.86 6.3 20.86 4 20 C4 18.35 4 16.7 4 15 C3.01 14.67 2.02 14.34 1 14 C-0.98 9.62 -1.28 5.77 -1 1 C-0.67 0.67 -0.34 0.34 0 0 Z " fill="#E1E2DF" transform="translate(202,212)"/>
<path d="M0 0 C24.75 0 49.5 0 75 0 C75 0.66 75 1.32 75 2 C77.48 1.5 77.48 1.5 80 1 C80 1.66 80 2.32 80 3 C81.65 3 83.3 3 85 3 C85 3.66 85 4.32 85 5 C88.96 5 92.92 5 97 5 C97 5.33 97 5.66 97 6 C76.31 6.15 55.68 5.77 35 5 C35 4.34 35 3.68 35 3 C23.12 3.33 11.24 3.66 -1 4 C-0.67 2.68 -0.34 1.36 0 0 Z " fill="#CACBC9" transform="translate(350,392)"/>
<path d="M0 0 C0.7 -0 1.4 -0 2.12 -0 C4.47 -0.01 6.82 -0.01 9.17 -0 C10.85 -0 12.54 -0.01 14.22 -0.01 C18.79 -0.01 23.36 -0.01 27.94 -0.01 C32.72 -0 37.49 -0.01 42.27 -0.01 C50.3 -0.01 58.32 -0.01 66.34 -0 C75.63 0 84.91 0 94.2 -0.01 C102.17 -0.01 110.13 -0.01 118.1 -0.01 C122.86 -0.01 127.62 -0.01 132.38 -0.01 C136.85 -0.01 141.33 -0.01 145.8 -0 C147.45 -0 149.09 -0 150.74 -0.01 C152.97 -0.01 155.21 -0.01 157.45 0 C158.7 0 159.96 0 161.25 0 C164.03 0.13 164.03 0.13 165.03 1.13 C165.07 3.13 165.08 5.13 165.03 7.13 C164.7 7.13 164.37 7.13 164.03 7.13 C163.7 5.48 163.37 3.83 163.03 2.13 C147.93 2.1 132.83 2.09 117.73 2.08 C110.71 2.07 103.69 2.06 96.67 2.05 C65.45 2 34.24 2.03 3.03 3.13 C2.7 4.12 2.37 5.11 2.03 6.13 C3.02 5.8 4.01 5.47 5.03 5.13 C7.55 5.04 10.03 5.01 12.55 5.03 C13.27 5.03 14 5.03 14.75 5.03 C17.08 5.04 19.4 5.05 21.72 5.06 C23.3 5.07 24.87 5.07 26.45 5.08 C30.31 5.09 34.17 5.11 38.03 5.13 C38.03 5.79 38.03 6.45 38.03 7.13 C31.8 7.3 25.57 7.45 19.34 7.61 C17.22 7.66 15.1 7.72 12.98 7.78 C9.94 7.86 6.9 7.93 3.85 8.01 C2.9 8.03 1.95 8.06 0.97 8.09 C0.09 8.11 -0.79 8.13 -1.7 8.15 C-2.87 8.18 -2.87 8.18 -4.06 8.21 C-5.97 8.13 -5.97 8.13 -7.97 7.13 C-7.97 6.14 -7.97 5.15 -7.97 4.13 C-8.63 3.8 -9.29 3.47 -9.97 3.13 C-10.3 2.47 -10.63 1.81 -10.97 1.13 C-7.29 -0.03 -3.83 0 0 0 Z " fill="#E6E6E5" transform="translate(346.9661102294922,389.8730163574219)"/>
<path d="M0 0 C0.83 0 1.66 0.01 2.52 0.01 C3.47 0 4.43 0 5.41 -0 C6.98 0.01 6.98 0.01 8.58 0.03 C9.68 0.03 10.78 0.03 11.92 0.03 C15.57 0.03 19.23 0.05 22.88 0.08 C25.41 0.08 27.94 0.09 30.47 0.09 C36.45 0.1 42.43 0.12 48.41 0.15 C55.22 0.19 62.03 0.2 68.84 0.22 C82.85 0.25 96.86 0.3 110.87 0.37 C110.87 1.03 110.87 1.69 110.87 2.37 C112.19 2.7 113.51 3.03 114.87 3.37 C75.27 3.37 35.67 3.37 -5.13 3.37 C-2.13 0.37 -2.13 0.37 0 0 Z " fill="#D5D4D5" transform="translate(74.13390636444092,793.630856513977)"/>
<path d="M0 0 C0.99 0.33 1.98 0.66 3 1 C3 1.99 3 2.98 3 4 C3.99 4 4.98 4 6 4 C6 5.65 6 7.3 6 9 C6.99 9.33 7.98 9.66 9 10 C9.69 12.06 9.69 12.06 10 14 C10.66 14 11.32 14 12 14 C12.29 15.26 12.29 15.26 12.59 16.55 C12.85 17.65 13.11 18.75 13.38 19.88 C13.63 20.97 13.89 22.06 14.15 23.18 C14.79 26.1 14.79 26.1 17 28 C17.33 29.01 17.66 30.02 18 31.06 C18.66 34.12 18.66 34.12 21 35 C21.73 37.31 22.39 39.65 23 42 C23.33 42.99 23.66 43.98 24 45 C25.49 45.5 25.49 45.5 27 46 C27.08 46.99 27.17 47.98 27.25 49 C27.66 51.96 28.46 54.04 29.94 56.62 C32.87 62.03 33.3 67.97 34 74 C29.08 69.69 29.08 69.69 28.69 66.19 C28.79 65.47 28.89 64.74 29 64 C27.51 63.5 27.51 63.5 26 63 C24.64 59.07 23.74 55.09 23 51 C22.34 51 21.68 51 21 51 C20.57 49.8 20.13 48.61 19.69 47.38 C18.34 43.78 16.74 40.42 15 37 C13.18 33 11.66 29.35 11 25 C10.34 25 9.68 25 9 25 C8.53 23.82 8.53 23.82 8.05 22.62 C5.26 15.68 5.26 15.68 1.69 9.12 C-0.14 5.74 -0.37 3.78 0 0 Z " fill="#EEEDEF" transform="translate(266,699)"/>
<path d="M0 0 C5.44 -0.36 5.44 -0.36 7.75 1.12 C10.33 5 11.2 9.47 12 14 C12.66 14 13.32 14 14 14 C14.29 15.13 14.58 16.27 14.88 17.44 C15.25 18.61 15.62 19.79 16 21 C16.66 21.33 17.32 21.66 18 22 C18.33 23.67 18.67 25.33 19 27 C19.66 27.33 20.32 27.66 21 28 C21 29.98 21 31.96 21 34 C22.49 34.5 22.49 34.5 24 35 C24 36.65 24 38.3 24 40 C25.49 40.5 25.49 40.5 27 41 C27 43.64 27 46.28 27 49 C25.51 49.5 25.51 49.5 24 50 C23.67 48.68 23.34 47.36 23 46 C22.01 46 21.02 46 20 46 C19.54 44.79 19.54 44.79 19.06 43.56 C18.24 41.11 18.24 41.11 17 40 C16.96 38 16.96 36 17 34 C16.01 34 15.02 34 14 34 C13.73 33.14 13.47 32.28 13.19 31.39 C12 28 10.56 24.9 8.94 21.69 C8.41 20.64 7.88 19.59 7.34 18.51 C6.22 16.13 6.22 16.13 5 15 C4.96 13 4.96 11 5 9 C4.01 9 3.02 9 2 9 C2 6.69 2 4.38 2 2 C1.34 2 0.68 2 0 2 C0 1.34 0 0.68 0 0 Z " fill="#E0DDE0" transform="translate(320,472)"/>
<path d="M0 0 C2.97 0.33 5.94 0.66 9 1 C10.27 4.65 11.33 8.19 12 12 C12.66 12 13.32 12 14 12 C14.41 13.18 14.82 14.35 15.25 15.56 C16.52 18.95 18.08 21.95 19.95 25.06 C21.67 28.23 22.89 31.59 24.17 34.96 C24.83 36.96 24.83 36.96 26 38 C26.26 39.47 26.46 40.95 26.62 42.44 C26.72 43.24 26.82 44.04 26.91 44.87 C27 47 27 47 26 49 C25.34 49 24.68 49 24 49 C23.67 47.68 23.34 46.36 23 45 C21.68 44.67 20.36 44.34 19 44 C19 42.35 19 40.7 19 39 C18.34 39 17.68 39 17 39 C16.88 38.2 16.75 37.39 16.62 36.56 C16.42 35.72 16.21 34.87 16 34 C15.34 33.67 14.68 33.34 14 33 C11.19 27.71 10.69 23.96 11 18 C10.01 18 9.02 18 8 18 C7.69 17.2 7.38 16.39 7.06 15.56 C6.24 13.11 6.24 13.11 5 12 C4.96 10 4.96 8 5 6 C4.01 6 3.02 6 2 6 C1.34 4.02 0.68 2.04 0 0 Z " fill="#DEE0DE" transform="translate(367,573)"/>
<path d="M0 0 C0.99 0.33 1.98 0.66 3 1 C3.67 2.67 4.33 4.33 5 6 C5.99 6.33 6.98 6.66 8 7 C9.03 8.67 9.03 8.67 9.94 10.82 C10.28 11.61 10.61 12.39 10.96 13.19 C11.3 14.02 11.65 14.84 12 15.69 C12.69 17.3 13.37 18.9 14.06 20.51 C14.55 21.67 14.55 21.67 15.05 22.84 C16.27 25.61 17.63 28.3 19 31 C19.35 31.93 19.7 32.86 20.06 33.81 C20.79 36.17 20.79 36.17 23 37 C23 40.3 23 43.6 23 47 C22.01 47 21.02 47 20 47 C19.67 46.01 19.34 45.02 19 44 C17.51 43.5 17.51 43.5 16 43 C16 41.35 16 39.7 16 38 C15.34 38 14.68 38 14 38 C13.67 36.02 13.34 34.04 13 32 C12.34 32 11.68 32 11 32 C10.67 30.02 10.34 28.04 10 26 C9.01 26 8.02 26 7 26 C6.81 25.3 6.61 24.6 6.41 23.88 C6.15 22.97 5.89 22.06 5.62 21.12 C5.24 19.77 5.24 19.77 4.85 18.38 C4.14 15.85 4.14 15.85 2 14 C1.73 11.31 1.91 8.71 2 6 C1.34 6 0.68 6 0 6 C0 4.02 0 2.04 0 0 Z " fill="#DCDEDC" transform="translate(347,524)"/>
<path d="M0 0 C1.81 0.19 1.81 0.19 4 1 C6.59 4.41 7.89 8.21 9.25 12.23 C9.96 14.21 9.96 14.21 12 16 C12.12 19.62 12.12 19.62 12 23 C12.99 23 13.98 23 15 23 C15.46 24.21 15.46 24.21 15.94 25.44 C16.76 27.89 16.76 27.89 18 29 C18.04 31 18.04 33 18 35 C19.49 35.5 19.49 35.5 21 36 C21 37.65 21 39.3 21 41 C21.99 41 22.98 41 24 41 C24 42.98 24 44.96 24 47 C25.49 47.5 25.49 47.5 27 48 C28.12 50.5 28.12 50.5 29 53 C29.5 53.5 29.5 53.5 30 54 C30.04 55.67 30.04 57.33 30 59 C29.01 59 28.02 59 27 59 C27 58.34 27 57.68 27 57 C25.68 56.67 24.36 56.34 23 56 C22.88 55.2 22.75 54.39 22.62 53.56 C22.42 52.72 22.21 51.87 22 51 C21.34 50.67 20.68 50.34 20 50 C19.15 47.18 18.53 44.34 17.88 41.47 C17.59 40.65 17.3 39.84 17 39 C15.51 38.5 15.51 38.5 14 38 C14 36.02 14 34.04 14 32 C13.34 32 12.68 32 12 32 C12 29.36 12 26.72 12 24 C11.01 24 10.02 24 9 24 C9 22.35 9 20.7 9 19 C8.01 18.67 7.02 18.34 6 18 C6 16.02 6 14.04 6 12 C5.01 12 4.02 12 3 12 C2.88 11.2 2.75 10.39 2.62 9.56 C2.32 8.29 2.32 8.29 2 7 C1.34 6.67 0.68 6.34 0 6 C-0.69 4.06 -0.69 4.06 -1 2 C-0.67 1.34 -0.34 0.68 0 0 Z " fill="#E9EAE9" transform="translate(585,209)"/>
<path d="M0 0 C4.92 4.18 4.92 4.18 5.31 8.31 C5.16 9.64 5.16 9.64 5 11 C5.99 11.33 6.98 11.66 8 12 C10.32 15.78 11.39 18.56 11 23 C11.66 23 12.32 23 13 23 C13.33 24.98 13.66 26.96 14 29 C14.66 29 15.32 29 16 29 C16.69 32.31 16.69 32.31 17 36 C15.52 37.73 15.52 37.73 14 39 C13.66 38.45 13.32 37.89 12.98 37.32 C12.53 36.6 12.08 35.87 11.62 35.12 C11.18 34.41 10.74 33.69 10.29 32.95 C9.01 30.88 9.01 30.88 7 29 C6.32 27 5.66 25 5 23 C4.02 20.99 3.02 18.99 2 17 C1.45 15.73 0.91 14.46 0.38 13.19 C-0.68 10.19 -0.68 10.19 -2 9 C-2.04 7 -2.04 5 -2 3 C-2.66 2.67 -3.32 2.34 -4 2 C-2.68 2 -1.36 2 0 2 C0 1.34 0 0.68 0 0 Z " fill="#DEDFDE" transform="translate(272,358)"/>
<path d="M0 0 C0.99 0.5 0.99 0.5 2 1 C3.11 4.32 3.12 6.78 3.12 10.28 C3.12 11.6 3.12 12.92 3.12 14.27 C3.12 15.74 3.12 17.2 3.11 18.66 C3.11 20.2 3.11 21.74 3.11 23.27 C3.11 27.45 3.11 31.63 3.1 35.81 C3.1 40.17 3.09 44.53 3.09 48.9 C3.09 57.16 3.08 65.43 3.07 73.7 C3.06 83.11 3.06 92.52 3.05 101.93 C3.04 121.28 3.02 140.64 3 160 C1 158 1 158 0.76 156.14 C0.76 155.37 0.76 154.61 0.77 153.82 C0.76 152.95 0.76 152.07 0.76 151.17 C0.77 150.21 0.78 149.25 0.79 148.26 C0.79 147.25 0.79 146.23 0.79 145.19 C0.8 141.84 0.82 138.48 0.84 135.12 C0.85 132.8 0.85 130.48 0.86 128.15 C0.87 122.02 0.89 115.9 0.92 109.77 C0.96 99.96 0.99 90.15 1.02 80.34 C1.03 76.9 1.04 73.47 1.06 70.03 C1.07 67.94 1.08 65.84 1.08 63.74 C1.09 62.78 1.1 61.82 1.1 60.83 C1.1 59.95 1.11 59.08 1.11 58.18 C1.11 57.41 1.11 56.65 1.12 55.86 C1.12 53.91 1.12 53.91 0 52 C-0.02 50.35 0.04 48.69 0.12 47.04 C0.17 46.02 0.22 45 0.27 43.95 C0.32 42.85 0.38 41.75 0.44 40.62 C0.82 32.25 1.11 23.89 1.12 15.5 C1.13 14.65 1.13 13.81 1.14 12.93 C1.49 9.16 1.49 9.16 0 6 C-0.04 4 -0.04 2 0 0 Z " fill="#FDFDFD" transform="translate(580,589)"/>
<path d="M0 0 C1.87 0.25 1.87 0.25 4 1 C5.2 2.81 5.2 2.81 6.12 5 C7.34 8.16 7.34 8.16 10 10 C10.62 13.06 10.62 13.06 11 16 C11.66 16 12.32 16 13 16 C13.33 18.31 13.66 20.62 14 23 C14.66 23 15.32 23 16 23 C16 24.65 16 26.3 16 28 C16.99 28 17.98 28 19 28 C18.67 30.97 18.34 33.94 18 37 C17.01 37 16.02 37 15 37 C12.09 33.34 11.68 30.61 12 26 C11.01 25.67 10.02 25.34 9 25 C6.14 21.29 5.68 18.63 6 14 C5.01 13.67 4.02 13.34 3 13 C3 11.35 3 9.7 3 8 C2.01 7.67 1.02 7.34 0 7 C0 4.69 0 2.38 0 0 Z " fill="#EEEEED" transform="translate(216,593)"/>
<path d="M0 0 C4.92 4.31 4.92 4.31 5.31 7.81 C5.21 8.53 5.11 9.26 5 10 C5.99 10.33 6.98 10.66 8 11 C8 12.98 8 14.96 8 17 C8.99 17.33 9.98 17.66 11 18 C13.86 21.71 14.32 24.37 14 29 C14.99 29.33 15.98 29.66 17 30 C17 32.64 17 35.28 17 38 C15.51 37.5 15.51 37.5 14 37 C13.67 35.35 13.34 33.7 13 32 C12.01 32 11.02 32 10 32 C10 30.35 10 28.7 10 27 C9.01 26.67 8.02 26.34 7 26 C4.44 22.59 3.64 20.25 4 16 C3.01 15.67 2.02 15.34 1 15 C1 13.02 1 11.04 1 9 C0.34 9 -0.32 9 -1 9 C-1.1 2.85 -1.1 2.85 -1 1 C-0.67 0.67 -0.34 0.34 0 0 Z " fill="#E6E5E5" transform="translate(764,585)"/>
<path d="M0 0 C3 1 3 1 4.12 3.19 C5.04 6.12 5.58 8.96 6 12 C6.99 12.33 7.98 12.66 9 13 C11.46 17.27 11.16 21.22 11 26 C11.99 26 12.98 26 14 26 C16.99 31.16 18.03 36.2 19 42 C18.01 42 17.02 42 16 42 C16 41.34 16 40.68 16 40 C14.52 39.5 14.52 39.5 13 39 C13 37.02 13 35.04 13 33 C12.34 33 11.68 33 11 33 C10.67 31.35 10.34 29.7 10 28 C9.34 28 8.68 28 8 28 C7.59 26.8 7.17 25.61 6.75 24.38 C5.66 21.4 4.67 19.56 2.75 16.94 C0.51 13.18 1 11.16 2 7 C1.34 7 0.68 7 0 7 C-0.66 5.35 -1.32 3.7 -2 2 C-1.34 1.34 -0.68 0.68 0 0 Z " fill="#ECECEC" transform="translate(40,215)"/>
<path d="M0 0 C0.66 0.33 1.32 0.66 2 1 C2 33.34 2 65.68 2 99 C0.52 99.5 0.52 99.5 -1 100 C-1.03 98.56 -1.05 97.13 -1.06 95.69 C-1.07 94.89 -1.09 94.09 -1.1 93.26 C-1 91 -1 91 0 88 C0.09 85.19 0.13 82.4 0.11 79.58 C0.11 78.29 0.11 78.29 0.11 76.98 C0.11 74.14 0.11 71.3 0.1 68.46 C0.1 66.49 0.09 64.52 0.09 62.55 C0.09 57.37 0.08 52.18 0.07 47 C0.06 41.71 0.05 36.42 0.05 31.13 C0.04 20.76 0.02 10.38 0 0 Z " fill="#E6E6E6" transform="translate(48,688)"/>
<path d="M0 0 C1.24 -0.01 2.49 -0.03 3.77 -0.04 C7.09 0.18 8.34 0.73 11.19 2.19 C13.6 2.48 16.02 2.68 18.44 2.81 C20.33 2.92 20.33 2.92 22.27 3.04 C23.23 3.09 24.19 3.14 25.19 3.19 C25.19 3.85 25.19 4.51 25.19 5.19 C29.81 5.19 34.43 5.19 39.19 5.19 C39.19 5.52 39.19 5.85 39.19 6.19 C18.83 6.29 -1.48 6.39 -21.81 5.19 C-21.81 4.53 -21.81 3.87 -21.81 3.19 C-20.81 3.05 -19.81 2.92 -18.79 2.79 C-17.49 2.61 -16.2 2.43 -14.88 2.25 C-13.59 2.08 -12.3 1.9 -10.97 1.72 C-0.83 0 -0.83 0 0 0 Z " fill="#ADADAD" transform="translate(788.8125,391.8125)"/>
<path d="M0 0 C0.66 0 1.32 0 2 0 C2.33 1.98 2.66 3.96 3 6 C3.66 6 4.32 6 5 6 C5.33 7.98 5.66 9.96 6 12 C6.66 12 7.32 12 8 12 C8 13.98 8 15.96 8 18 C8.66 18 9.32 18 10 18 C14.59 26.26 14.59 26.26 14 31 C13.01 31.33 12.02 31.66 11 32 C10.67 30.35 10.34 28.7 10 27 C9.01 27 8.02 27 7 27 C7 25.35 7 23.7 7 22 C6.01 22 5.02 22 4 22 C4 19.69 4 17.38 4 15 C3.01 15 2.02 15 1 15 C1 13.02 1 11.04 1 9 C0.34 9 -0.32 9 -1 9 C-1.12 2.25 -1.12 2.25 0 0 Z " fill="#DFE0DF" transform="translate(677,398)"/>
<path d="M0 0 C0.33 0 0.66 0 1 0 C1.33 2.97 1.66 5.94 2 9 C2.66 9 3.32 9 4 9 C4 9.99 4 10.98 4 12 C4.99 12 5.98 12 7 12 C7.33 13.65 7.66 15.3 8 17 C8.66 17 9.32 17 10 17 C10.33 18.98 10.66 20.96 11 23 C11.66 23 12.32 23 13 23 C13 25.64 13 28.28 13 31 C11.13 30.73 11.13 30.73 9 30 C7.84 28.36 7.84 28.36 6.94 26.31 C6.61 25.59 6.28 24.87 5.94 24.12 C5.63 23.42 5.32 22.72 5 22 C4.48 20.97 3.97 19.94 3.44 18.88 C2.41 16.82 1.39 14.75 0.38 12.69 C-0.75 10.15 -0.75 10.15 -2 9 C-2.19 5.56 -2.19 5.56 -2 2 C-1.34 1.34 -0.68 0.68 0 0 Z " fill="#E5E5E5" transform="translate(626,639)"/>
<path d="M0 0 C0.33 0 0.66 0 1 0 C1 23.43 1 46.86 1 71 C0.67 71 0.34 71 0 71 C0 62.42 0 53.84 0 45 C-0.66 45 -1.32 45 -2 45 C-2 34.11 -2 23.22 -2 12 C-1.34 12 -0.68 12 0 12 C-0.08 11.22 -0.17 10.44 -0.25 9.63 C-0.36 8.62 -0.46 7.61 -0.56 6.56 C-0.67 5.55 -0.77 4.54 -0.88 3.5 C-0.92 2.68 -0.96 1.85 -1 1 C-0.67 0.67 -0.34 0.34 0 0 Z " fill="#D6D6D6" transform="translate(49,617)"/>
<path d="M0 0 C0.66 0.33 1.32 0.66 2 1 C2 1.99 2 2.98 2 4 C2.99 4.33 3.98 4.66 5 5 C5.37 6.32 5.71 7.66 6 9 C6.66 9.33 7.32 9.66 8 10 C8 11.98 8 13.96 8 16 C8.66 16 9.32 16 10 16 C12.71 20.77 14.57 24.34 14 30 C12.68 30 11.36 30 10 30 C10 28.68 10 27.36 10 26 C9.34 26 8.68 26 8 26 C7.67 23.69 7.34 21.38 7 19 C6.34 19 5.68 19 5 19 C5.12 17.95 5.25 16.9 5.38 15.81 C5.42 11.76 5.42 11.76 2 9.44 C1.01 8.63 0.02 7.83 -1 7 C-1.44 3.75 -1.44 3.75 -1 1 C-0.67 0.67 -0.34 0.34 0 0 Z " fill="#E5E7E5" transform="translate(636,313)"/>
<path d="M0 0 C20.78 -0.26 41.28 0.22 62 2 C62 2.33 62 2.66 62 3 C41.31 3.15 20.68 2.77 0 2 C0 1.34 0 0.68 0 0 Z " fill="#9D9D9D" transform="translate(385,395)"/>
<path d="M0 0 C0.5 0.99 0.5 0.99 1 2 C-2.73 4.57 -5.19 5.37 -9.71 5.34 C-10.83 5.34 -11.95 5.34 -13.1 5.34 C-14.3 5.32 -15.5 5.31 -16.74 5.29 C-17.97 5.29 -19.21 5.28 -20.48 5.28 C-23.76 5.27 -27.03 5.24 -30.3 5.21 C-33.65 5.18 -36.99 5.16 -40.34 5.15 C-46.89 5.11 -53.45 5.06 -60 5 C-59.34 4.01 -58.68 3.02 -58 2 C-55.13 1.97 -52.47 2.11 -49.62 2.38 C-41.42 3 -33.45 2.88 -25.24 2.32 C-23.16 2.18 -21.08 2.09 -19 2 C-18.5 2.5 -18.5 2.5 -18 3 C-15.7 3.07 -13.42 3 -11.13 2.94 C-9 3 -9 3 -7 4 C-6.67 3.34 -6.34 2.68 -6 2 C-4.02 1.27 -2.02 0.6 0 0 Z " fill="#FFFFFE" transform="translate(888,393)"/>
<path d="M0 0 C0.66 0.33 1.32 0.66 2 1 C1.18 5.38 0.1 9.68 -1 14 C-1.66 14 -2.32 14 -3 14 C-3 15.32 -3 16.64 -3 18 C-3.66 18 -4.32 18 -5 18 C-5.33 19.32 -5.66 20.64 -6 22 C-7.32 22 -8.64 22 -10 22 C-10 20.02 -10 18.04 -10 16 C-9.01 15.67 -8.02 15.34 -7 15 C-7 13.35 -7 11.7 -7 10 C-6.01 9.67 -5.02 9.34 -4 9 C-4.08 8.26 -4.16 7.51 -4.25 6.75 C-3.93 3.22 -2.65 2.23 0 0 Z " fill="#E6EAE6" transform="translate(803,223)"/>
<path d="M0 0 C1.65 0.33 3.3 0.66 5 1 C4.77 2.61 4.52 4.21 4.25 5.81 C4.11 6.71 3.97 7.6 3.83 8.52 C2.82 11.53 1.6 12.28 -1 14 C-1.29 14.7 -1.58 15.4 -1.88 16.12 C-2.25 16.74 -2.62 17.36 -3 18 C-6.12 18.75 -6.12 18.75 -9 19 C-8.5 17.51 -8.5 17.51 -8 16 C-7.34 16 -6.68 16 -6 16 C-6 14.35 -6 12.7 -6 11 C-5.01 10.67 -4.02 10.34 -3 10 C-3 8.35 -3 6.7 -3 5 C-2.34 5 -1.68 5 -1 5 C-0.67 3.35 -0.34 1.7 0 0 Z " fill="#E1E1E0" transform="translate(894,371)"/>
<path d="M0 0 C0.66 0 1.32 0 2 0 C1.71 6.22 0.79 11.88 -3 17 C-3.99 17.33 -4.98 17.66 -6 18 C-6.33 18.99 -6.66 19.98 -7 21 C-7.99 20.67 -8.98 20.34 -10 20 C-10 18.35 -10 16.7 -10 15 C-9.34 15 -8.68 15 -8 15 C-7.9 14.32 -7.79 13.64 -7.69 12.94 C-6.85 9.37 -5.51 6.34 -4 3 C-3.01 3 -2.02 3 -1 3 C-0.67 2.01 -0.34 1.02 0 0 Z " fill="#FAFAF9" transform="translate(780,270)"/>
<path d="M0 0 C1.32 0 2.64 0 4 0 C4 0.66 4 1.32 4 2 C5.7 1.51 5.7 1.51 7.43 1.01 C14.86 -0.64 22.5 -0.21 30.06 -0.12 C31.61 -0.11 33.16 -0.11 34.71 -0.1 C38.47 -0.08 42.24 -0.04 46 0 C46 0.66 46 1.32 46 2 C39.77 2.17 33.54 2.33 27.31 2.48 C25.19 2.54 23.07 2.59 20.95 2.65 C17.91 2.73 14.86 2.81 11.82 2.88 C10.87 2.91 9.92 2.93 8.94 2.96 C8.05 2.98 7.17 3 6.27 3.02 C5.1 3.05 5.1 3.05 3.91 3.08 C2 3 2 3 0 2 C0 1.34 0 0.68 0 0 Z " fill="#F6F6F0" transform="translate(339,395)"/>
<path d="M0 0 C0.66 0 1.32 0 2 0 C2 0.99 2 1.98 2 3 C2.66 3 3.32 3 4 3 C4.7 4.56 5.39 6.12 6.06 7.69 C6.45 8.56 6.83 9.43 7.22 10.32 C8.09 13.32 7.85 15.03 7 18 C6.34 18 5.68 18 5 18 C4.67 17.01 4.34 16.02 4 15 C3.01 14.67 2.02 14.34 1 14 C-0.98 9.62 -1.28 5.77 -1 1 C-0.67 0.67 -0.34 0.34 0 0 Z " fill="#DEDEDF" transform="translate(756,567)"/>
<path d="M0 0 C8.25 0 16.5 0 25 0 C24.67 0.99 24.34 1.98 24 3 C16.41 3 8.82 3 1 3 C0.67 2.01 0.34 1.02 0 0 Z " fill="#CFCFCF" transform="translate(541,794)"/>
<path d="M0 0 C0.99 0.33 1.98 0.66 3 1 C-3.27 17.38 -3.27 17.38 -10 21 C-12.69 21.44 -12.69 21.44 -15 21 C-15.66 20.01 -16.32 19.02 -17 18 C-14.03 18 -11.06 18 -8 18 C-7.73 17.32 -7.47 16.63 -7.2 15.93 C-5.85 12.63 -4.37 9.41 -2.88 6.19 C-2.34 5.03 -1.8 3.86 -1.24 2.67 C-0.83 1.79 -0.42 0.91 0 0 Z " fill="#FBFBFB" transform="translate(326,776)"/>
<path d="M0 0 C0.99 0 1.98 0 3 0 C3 0.66 3 1.32 3 2 C3.66 2 4.32 2 5 2 C5.33 4.97 5.66 7.94 6 11 C6.66 11 7.32 11 8 11 C8 12.32 8 13.64 8 15 C5 15 5 15 3.31 13.75 C2 12 2 12 2 8 C1.34 8 0.68 8 0 8 C-0.38 5.67 -0.71 3.34 -1 1 C-0.67 0.67 -0.34 0.34 0 0 Z " fill="#DBDBDC" transform="translate(520,421)"/>
<path d="M0 0 C0.66 0 1.32 0 2 0 C2 1.65 2 3.3 2 5 C3.32 5 4.64 5 6 5 C7.81 7.06 7.81 7.06 9 10 C8.69 13.81 8.69 13.81 8 17 C7.01 17 6.02 17 5 17 C2.32 13.52 1.89 11.29 2 7 C1.37 5.65 0.7 4.32 0 3 C0 2.01 0 1.02 0 0 Z " fill="#EBEBEA" transform="translate(258,680)"/>
<path d="M0 0 C3.44 -0.09 6.87 -0.14 10.31 -0.19 C11.29 -0.21 12.27 -0.24 13.27 -0.26 C14.21 -0.27 15.15 -0.28 16.11 -0.29 C16.98 -0.31 17.84 -0.32 18.73 -0.34 C21 0 21 0 24 3 C16.74 3 9.48 3 2 3 C2 2.34 2 1.68 2 1 C1.34 0.67 0.68 0.34 0 0 Z " fill="#CBCBCB" transform="translate(446,794)"/>
<path d="M0 0 C0.66 0.33 1.32 0.66 2 1 C2 1.99 2 2.98 2 4 C2.99 4.33 3.98 4.66 5 5 C5.37 6.32 5.71 7.66 6 9 C6.66 9.33 7.32 9.66 8 10 C8 11.65 8 13.3 8 15 C7.01 15 6.02 15 5 15 C5 14.01 5 13.02 5 12 C4.01 11.24 3.02 10.47 2 9.69 C-0.7 7.59 -0.95 7.37 -1.44 3.75 C-1 1 -1 1 0 0 Z " fill="#CDCDCD" transform="translate(636,313)"/>
<path d="M0 0 C2.48 0.99 2.48 0.99 5 2 C3.81 4.94 3.81 4.94 2 8 C-0.69 8.88 -0.69 8.88 -3 9 C-3.37 3.46 -3.37 3.46 -1.5 1.12 C-1 0.75 -0.51 0.38 0 0 Z " fill="#D8D6D8" transform="translate(728,734)"/>
<path d="M0 0 C1.65 0.33 3.3 0.66 5 1 C4.75 2.48 4.47 3.96 4.19 5.44 C4.04 6.26 3.89 7.08 3.73 7.93 C3.49 8.62 3.25 9.3 3 10 C2.01 10.33 1.02 10.66 0 11 C0 10.34 0 9.68 0 9 C-0.99 9 -1.98 9 -3 9 C-3 7.68 -3 6.36 -3 5 C-2.01 5 -1.02 5 0 5 C0 3.35 0 1.7 0 0 Z " fill="#CECECF" transform="translate(763,662)"/>
<path d="M0 0 C2 4 2 4 1.62 6.25 C1.42 6.83 1.21 7.4 1 8 C-3.75 7.57 -5.92 6.67 -9 3 C-6.03 2.01 -3.06 1.02 0 0 Z " fill="#D6D5D6" transform="translate(704,789)"/>
<path d="M0 0 C2 2 2 2 2.23 4.47 C2.02 19.42 2.02 19.42 1 24 C0.34 24.33 -0.32 24.66 -1 25 C-1.14 16.61 -0.75 8.36 0 0 Z " fill="#BBBBBB" transform="translate(581,747)"/>
<path d="M0 0 C1.65 0 3.3 0 5 0 C4.67 2.31 4.34 4.62 4 7 C3.34 7 2.68 7 2 7 C1.67 8.32 1.34 9.64 1 11 C0.01 10.34 -0.98 9.68 -2 9 C-1.34 6.03 -0.68 3.06 0 0 Z " fill="#D2D7D0" transform="translate(757,673)"/>
<path d="M0 0 C0.66 0.33 1.32 0.66 2 1 C2 1.99 2 2.98 2 4 C2.66 4 3.32 4 4 4 C4.33 5.98 4.66 7.96 5 10 C5.66 10 6.32 10 7 10 C7.33 10.99 7.66 11.98 8 13 C6.68 13 5.36 13 4 13 C2.38 10.56 2.38 10.56 1 8 C0.34 7.67 -0.32 7.34 -1 7 C-0.67 4.69 -0.34 2.38 0 0 Z " fill="#CACACA" transform="translate(281,377)"/>
<path d="M0 0 C0.66 0 1.32 0 2 0 C3.49 2.99 3.12 5.7 3 9 C2.67 9.99 2.34 10.98 2 12 C1.34 12 0.68 12 0 12 C-0.14 12.78 -0.29 13.57 -0.44 14.38 C-1 17 -1 17 -2 19 C-2.66 18.67 -3.32 18.34 -4 18 C-3.53 17.07 -3.05 16.14 -2.56 15.19 C-0.44 10.31 -0.28 5.25 0 0 Z " fill="#FFFFFF" transform="translate(396,623)"/>
<path d="M0 0 C0.99 0 1.98 0 3 0 C3 1.32 3 2.64 3 4 C3.99 4 4.98 4 6 4 C6.66 7.63 7.32 11.26 8 15 C3.08 10.69 3.08 10.69 2.69 7.19 C2.79 6.47 2.89 5.74 3 5 C2.01 4.67 1.02 4.34 0 4 C0 2.68 0 1.36 0 0 Z " fill="#DADADA" transform="translate(292,758)"/>
<path d="M0 0 C0.99 0 1.98 0 3 0 C3 0.66 3 1.32 3 2 C3.99 2.33 4.98 2.66 6 3 C6.33 5.97 6.66 8.94 7 12 C6.01 12 5.02 12 4 12 C3.33 10.57 2.66 9.13 2 7.69 C1.63 6.89 1.26 6.09 0.88 5.26 C0 3 0 3 0 0 Z " fill="#DDDDDD" transform="translate(271,712)"/>
<path d="M0 0 C0.33 0 0.66 0 1 0 C1.1 4.2 1.17 8.4 1.22 12.6 C1.24 14.03 1.27 15.45 1.3 16.88 C1.35 18.94 1.37 20.99 1.39 23.05 C1.41 24.28 1.43 25.52 1.45 26.79 C0.92 30.55 -0.08 31.68 -3 34 C-2.67 32.35 -2.34 30.7 -2 29 C-1.34 29 -0.68 29 0 29 C0 19.43 0 9.86 0 0 Z " fill="#FFFFFF" transform="translate(582,761)"/>
<path d="M0 0 C0.99 0 1.98 0 3 0 C3 1.65 3 3.3 3 5 C3.99 5 4.98 5 6 5 C6 6.98 6 8.96 6 11 C5.01 11 4.02 11 3 11 C0.09 7.34 -0.32 4.61 0 0 Z " fill="#D7D6D8" transform="translate(228,619)"/>
<path d="M0 0 C1.88 0.25 1.88 0.25 4 1 C6.03 3.94 6 5.28 6 9 C1.25 7.12 1.25 7.12 -1 6 C-0.67 4.02 -0.34 2.04 0 0 Z " fill="#D6D6D6" transform="translate(248,311)"/>
<path d="M0 0 C0.99 0 1.98 0 3 0 C3 1.32 3 2.64 3 4 C3.99 4 4.98 4 6 4 C6 6.31 6 8.62 6 11 C3 10 3 10 1.31 7.75 C-0.07 4.86 -0.27 3.15 0 0 Z " fill="#D7D7D7" transform="translate(682,765)"/>
<path d="M0 0 C0.99 0 1.98 0 3 0 C3 1.65 3 3.3 3 5 C3.99 5.33 4.98 5.66 6 6 C5.67 7.65 5.34 9.3 5 11 C4.34 11 3.68 11 3 11 C3 10.01 3 9.02 3 8 C2.01 8 1.02 8 0 8 C0 5.36 0 2.72 0 0 Z " fill="#CAC9C7" transform="translate(667,379)"/>
<path d="M0 0 C1.65 0.99 3.3 1.98 5 3 C4.67 5.64 4.34 8.28 4 11 C3.34 11 2.68 11 2 11 C1.67 9.35 1.34 7.7 1 6 C0.34 6 -0.32 6 -1 6 C-1.04 4.33 -1.04 2.67 -1 1 C-0.67 0.67 -0.34 0.34 0 0 Z " fill="#D8D7D7" transform="translate(202,212)"/>
<path d="M0 0 C1.06 0.01 1.06 0.01 2.14 0.01 C3.89 0.03 5.63 0.04 7.38 0.06 C4.47 2.56 2.71 3.46 -1.12 3.38 C-1.88 3.37 -2.63 3.37 -3.41 3.36 C-5.84 3.03 -7.51 2.27 -9.62 1.06 C-6.56 -0.47 -3.36 -0.04 0 0 Z " fill="#D5D5D5" transform="translate(61.625,793.9375)"/>
<path d="M0 0 C2 2 2 2 2.23 4.06 C2.22 4.89 2.21 5.72 2.2 6.57 C2.19 7.47 2.18 8.36 2.18 9.29 C2.16 10.22 2.14 11.16 2.12 12.12 C2.12 13.07 2.11 14.01 2.1 14.99 C2.07 17.33 2.04 19.66 2 22 C-1.63 16.56 -1.01 11.51 -0.25 5.27 C0.06 2.88 0.06 2.88 0 0 Z " fill="#E8E8E8" transform="translate(48,594)"/>
<path d="M0 0 C0.66 0.33 1.32 0.66 2 1 C2 1.99 2 2.98 2 4 C2.66 4 3.32 4 4 4 C4.66 5.98 5.32 7.96 6 10 C4.68 10 3.36 10 2 10 C2 9.01 2 8.02 2 7 C1.01 7 0.02 7 -1 7 C-1.04 5 -1.04 3 -1 1 C-0.67 0.67 -0.34 0.34 0 0 Z " fill="#CECECE" transform="translate(683,412)"/>
<path d="M0 0 C3.46 1.15 4.2 1.91 6 5 C6.19 7.75 6.19 7.75 6 10 C5.01 10 4.02 10 3 10 C2.67 8.68 2.34 7.36 2 6 C1.34 6 0.68 6 0 6 C0 4.02 0 2.04 0 0 Z " fill="#DCDCDC" transform="translate(609,258)"/>
<path d="M0 0 C1.65 0 3.3 0 5 0 C4.67 0.66 4.34 1.32 4 2 C3.34 2 2.68 2 2 2 C2 4.64 2 7.28 2 10 C1.01 10.33 0.02 10.66 -1 11 C-1.66 9.35 -2.32 7.7 -3 6 C-2.34 6 -1.68 6 -1 6 C-0.67 4.02 -0.34 2.04 0 0 Z " fill="#D3D3D3" transform="translate(752,685)"/>
<path d="M0 0 C0.33 0 0.66 0 1 0 C1.33 2.97 1.66 5.94 2 9 C2.66 9 3.32 9 4 9 C4 10.32 4 11.64 4 13 C3.34 13 2.68 13 2 13 C1.34 11.68 0.68 10.36 0 9 C-0.66 9 -1.32 9 -2 9 C-2.12 5.62 -2.12 5.62 -2 2 C-1.34 1.34 -0.68 0.68 0 0 Z " fill="#D2D2D2" transform="translate(626,639)"/>
<path d="M0 0 C0.99 0.33 1.98 0.66 3 1 C4.31 4.17 5 6.56 5 10 C4.34 9.67 3.68 9.34 3 9 C3 8.34 3 7.68 3 7 C0.03 6.5 0.03 6.5 -3 6 C-3 5.01 -3 4.02 -3 3 C-2.01 3 -1.02 3 0 3 C0 2.01 0 1.02 0 0 Z " fill="#EDEDED" transform="translate(326,474)"/>
<path d="M0 0 C0.99 0.33 1.98 0.66 3 1 C3 2.32 3 3.64 3 5 C4.65 5.33 6.3 5.66 8 6 C8.33 7.65 8.66 9.3 9 11 C8.01 10.67 7.02 10.34 6 10 C6 9.34 6 8.68 6 8 C5.01 8 4.02 8 3 8 C3 7.34 3 6.68 3 6 C2.01 5.67 1.02 5.34 0 5 C0 3.35 0 1.7 0 0 Z " fill="#E2E2E2" transform="translate(251,668)"/>
<path d="M0 0 C0.99 0 1.98 0 3 0 C5.6 3.37 6.36 5.77 6 10 C5.01 10 4.02 10 3 10 C0.4 6.63 -0.36 4.23 0 0 Z " fill="#DEDEE1" transform="translate(187,532)"/>
<path d="M0 0 C0.33 0.66 0.66 1.32 1 2 C-1.42 2.05 -3.83 2.09 -6.25 2.12 C-6.93 2.14 -7.61 2.16 -8.32 2.18 C-12.06 2.21 -14.82 2.08 -18 0 C-12.1 -1.47 -5.95 -1.06 0 0 Z " fill="#AFAFAF" transform="translate(489,396)"/>
<path d="M0 0 C0.99 0.33 1.98 0.66 3 1 C4.19 4.56 4.19 4.56 5 8 C3.35 8.33 1.7 8.66 0 9 C0 7.02 0 5.04 0 3 C-0.99 2.67 -1.98 2.34 -3 2 C-2.01 1.34 -1.02 0.68 0 0 Z " fill="#C7C7C7" transform="translate(653,700)"/>
<path d="M0 0 C1.65 0.33 3.3 0.66 5 1 C4.67 3.31 4.34 5.62 4 8 C3.01 7.67 2.02 7.34 1 7 C0.67 7.66 0.34 8.32 0 9 C-0.66 9 -1.32 9 -2 9 C-2 8.01 -2 7.02 -2 6 C-1.34 6 -0.68 6 0 6 C0 4.02 0 2.04 0 0 Z " fill="#D0D0CF" transform="translate(894,371)"/>
<path d="M0 0 C0.66 0 1.32 0 2 0 C1.47 3.82 0.5 6.06 -2 9 C-2.99 8.67 -3.98 8.34 -5 8 C-4.67 6.35 -4.34 4.7 -4 3 C-3.01 3 -2.02 3 -1 3 C-0.67 2.01 -0.34 1.02 0 0 Z " fill="#DEDEDE" transform="translate(780,270)"/>
<path d="M0 0 C1 3 1 3 0.11 5.04 C-0.34 5.75 -0.79 6.46 -1.25 7.19 C-1.69 7.9 -2.13 8.62 -2.58 9.36 C-3.05 9.9 -3.52 10.44 -4 11 C-4.99 11 -5.98 11 -7 11 C-6.48 10.61 -5.97 10.22 -5.44 9.81 C-4.73 8.92 -4.73 8.92 -4 8 C-4.23 5.35 -4.23 5.35 -5 3 C-3.35 2.01 -1.7 1.02 0 0 Z " fill="#F2F2F2" transform="translate(381,665)"/>
<path d="M0 0 C0.66 0.33 1.32 0.66 2 1 C2.33 1.99 2.66 2.98 3 4 C3.66 4.66 4.32 5.32 5 6 C4.34 6 3.68 6 3 6 C3.33 7.65 3.66 9.3 4 11 C3.34 11 2.68 11 2 11 C2 10.01 2 9.02 2 8 C1.01 8 0.02 8 -1 8 C-1.04 5.67 -1.04 3.33 -1 1 C-0.67 0.67 -0.34 0.34 0 0 Z " fill="#CCCCCB" transform="translate(240,291)"/>
<path d="M0 0 C3 0 3 0 4.68 1.21 C6.38 3.52 6.31 4.85 6.19 7.69 C6.16 8.5 6.13 9.3 6.11 10.14 C6.07 10.75 6.04 11.37 6 12 C2.83 8.37 1.57 4.49 0 0 Z " fill="#D6D7D6" transform="translate(574,537)"/>
<path d="M0 0 C2.96 0.61 4.38 1.25 7 3 C6.67 3.99 6.34 4.98 6 6 C4.35 6.33 2.7 6.66 1 7 C0.67 4.69 0.34 2.38 0 0 Z " fill="#ECECEC" transform="translate(59,258)"/>
<path d="M0 0 C0.66 0 1.32 0 2 0 C2 0.66 2 1.32 2 2 C2.99 2 3.98 2 5 2 C5 4.31 5 6.62 5 9 C4.01 9 3.02 9 2 9 C0.5 5.63 0 3.8 0 0 Z " fill="#D1D1D1" transform="translate(674,749)"/>
<path d="M0 0 C1.48 0.99 1.48 0.99 3 2 C3 2.66 3 3.32 3 4 C3.66 4.33 4.32 4.66 5 5 C5 6.98 5 8.96 5 11 C4.01 10.67 3.02 10.34 2 10 C0.48 6.4 0 3.95 0 0 Z " fill="#E5E5E6" transform="translate(106,358)"/>
<path d="M0 0 C0.66 0.33 1.32 0.66 2 1 C1.67 2.32 1.34 3.64 1 5 C0.34 5 -0.32 5 -1 5 C-1.12 5.54 -1.25 6.07 -1.38 6.62 C-2.12 9.46 -3.05 12.22 -4 15 C-4.33 15 -4.66 15 -5 15 C-5.33 12.36 -5.66 9.72 -6 7 C-5.01 6.67 -4.02 6.34 -3 6 C-1.29 3 -1.29 3 0 0 Z " fill="#F1F1F1" transform="translate(759,680)"/>
<path d="M0 0 C0.33 0.66 0.66 1.32 1 2 C0.22 3.95 0.22 3.95 -0.94 6.12 C-1.32 6.85 -1.7 7.57 -2.09 8.32 C-2.39 8.87 -2.69 9.43 -3 10 C-3.66 10 -4.32 10 -5 10 C-6.12 5.25 -6.12 5.25 -5 3 C-3.36 1.96 -1.69 0.95 0 0 Z " fill="#EDEFEF" transform="translate(375,678)"/>
<path d="M0 0 C0.66 0 1.32 0 2 0 C2.31 0.78 2.62 1.57 2.94 2.38 C3.93 4.92 3.93 4.92 5 7 C3.02 7.33 1.04 7.66 -1 8 C-1.12 2.25 -1.12 2.25 0 0 Z " fill="#D3D3D3" transform="translate(263,340)"/>
<path d="M0 0 C0.33 0.66 0.66 1.32 1 2 C1.66 2 2.32 2 3 2 C3 4.97 3 7.94 3 11 C2.01 11 1.02 11 0 11 C0 7.37 0 3.74 0 0 Z " fill="#DFDEDF" transform="translate(691,777)"/>
<path d="M0 0 C3 2 3 2 3.81 4.5 C3.87 5.33 3.94 6.15 4 7 C3.34 7.66 2.68 8.32 2 9 C0.35 6.69 -1.3 4.38 -3 2 C-2.01 1.34 -1.02 0.68 0 0 Z " fill="#CDCCCD" transform="translate(280,725)"/>
<path d="M0 0 C-0.33 1.32 -0.66 2.64 -1 4 C-1.66 4 -2.32 4 -3 4 C-3 5.98 -3 7.96 -3 10 C-3.99 10 -4.98 10 -6 10 C-6.34 6.3 -6.48 4.6 -4.12 1.62 C-2 0 -2 0 0 0 Z " fill="#F6F6F6" transform="translate(367,696)"/>
<path d="M0 0 C0.99 0 1.98 0 3 0 C3 0.66 3 1.32 3 2 C3.66 2 4.32 2 5 2 C5 3.98 5 5.96 5 8 C4.67 7.34 4.34 6.68 4 6 C2.36 5.28 0.69 4.61 -1 4 C-0.67 2.68 -0.34 1.36 0 0 Z " fill="#DEDDDE" transform="translate(182,521)"/>
<path d="M0 0 C0 2.31 0 4.62 0 7 C0.66 7.33 1.32 7.66 2 8 C1.01 8.66 0.02 9.32 -1 10 C-1.33 9.01 -1.66 8.02 -2 7 C-2.66 6.67 -3.32 6.34 -4 6 C-3.62 3.56 -3.62 3.56 -3 1 C-1 0 -1 0 0 0 Z " fill="#D3EFD3" transform="translate(92,321)"/>
<path d="M0 0 C0.66 0 1.32 0 2 0 C2.51 1.27 3 2.54 3.5 3.81 C3.92 4.87 3.92 4.87 4.34 5.96 C5 8 5 8 5 11 C3.29 9.38 1.63 7.71 0 6 C0 5.34 0 4.68 0 4 C-0.99 3.67 -1.98 3.34 -3 3 C-2.01 2.67 -1.02 2.34 0 2 C0 1.34 0 0.68 0 0 Z " fill="#EDEDED" transform="translate(379,585)"/>
<path d="M0 0 C2 1.12 2 1.12 4 3 C4.25 6.19 4.25 6.19 4 9 C4.99 9.33 5.98 9.66 7 10 C6.67 10.66 6.34 11.32 6 12 C4.35 11.67 2.7 11.34 1 11 C1 10.01 1 9.02 1 8 C1.66 8 2.32 8 3 8 C2.5 7.05 2.01 6.1 1.5 5.12 C0 2 0 2 0 0 Z " fill="#F4F3F2" transform="translate(774,605)"/>
<path d="M0 0 C0.99 0.33 1.98 0.66 3 1 C2.43 3.87 2.14 4.86 0 7 C-3.12 7.12 -3.12 7.12 -6 7 C-2.25 4 -2.25 4 0 4 C0 2.68 0 1.36 0 0 Z " fill="#FCFCFC" transform="translate(195,790)"/>
<path d="M0 0 C1.21 0.03 1.21 0.03 2.44 0.06 C2.77 2.04 3.1 4.02 3.44 6.06 C2.45 6.06 1.46 6.06 0.44 6.06 C-1.75 3.56 -1.75 3.56 -3.56 1.06 C-2.56 0.06 -2.56 0.06 0 0 Z " fill="#C2C2C2" transform="translate(621.5625,632.9375)"/>
<path d="M0 0 C3.53 2.36 4.44 4.1 6 8 C5.69 10.38 5.69 10.38 5 12 C5 11.01 5 10.02 5 9 C4.34 9 3.68 9 3 9 C3 8.01 3 7.02 3 6 C2.01 5.67 1.02 5.34 0 5 C0 3.35 0 1.7 0 0 Z " fill="#F1F1F1" transform="translate(312,443)"/>
<path d="M0 0 C3.3 0 6.6 0 10 0 C10 0.99 10 1.98 10 3 C7.03 3 4.06 3 1 3 C0.67 2.01 0.34 1.02 0 0 Z " fill="#EAEAEA" transform="translate(489,395)"/>
<path d="M0 0 C1.98 0 3.96 0 6 0 C6.33 1.65 6.66 3.3 7 5 C5.02 5 3.04 5 1 5 C0.67 3.35 0.34 1.7 0 0 Z " fill="#CACAC9" transform="translate(342,392)"/>
<path d="M0 0 C1.32 0 2.64 0 4 0 C3.67 1.98 3.34 3.96 3 6 C1.68 6.33 0.36 6.66 -1 7 C-0.67 4.69 -0.34 2.38 0 0 Z " fill="#E6E6E6" transform="translate(805,215)"/>
<path d="M0 0 C0.99 0.33 1.98 0.66 3 1 C3.33 1.99 3.66 2.98 4 4 C3.34 4 2.68 4 2 4 C2 4.66 2 5.32 2 6 C0.68 6 -0.64 6 -2 6 C-2 4.68 -2 3.36 -2 2 C-1.34 2 -0.68 2 0 2 C0 1.34 0 0.68 0 0 Z " fill="#CECDCE" transform="translate(961,237)"/>
<path d="M0 0 C1.06 1.88 1.06 1.88 2 4 C1.67 4.66 1.34 5.32 1 6 C-0.65 6 -2.3 6 -4 6 C-4 4.68 -4 3.36 -4 2 C-2.68 1.34 -1.36 0.68 0 0 Z " fill="#C3C3C3" transform="translate(578,791)"/>
<path d="M0 0 C1.98 0.99 1.98 0.99 4 2 C3.67 3.65 3.34 5.3 3 7 C2.01 6.67 1.02 6.34 0 6 C0 4.02 0 2.04 0 0 Z " fill="#E8E8E8" transform="translate(745,702)"/>
<path d="M0 0 C0.66 0 1.32 0 2 0 C5.08 5.42 5.08 5.42 4.69 8.38 C4.46 8.91 4.23 9.45 4 10 C3.34 9.34 2.68 8.68 2 8 C2 6.68 2 5.36 2 4 C1.34 4 0.68 4 0 4 C-0.33 3.01 -0.66 2.02 -1 1 C-0.67 0.67 -0.34 0.34 0 0 Z " fill="#FFFFFF" transform="translate(287,746)"/>
<path d="M0 0 C-0.33 1.65 -0.66 3.3 -1 5 C-2.65 4.67 -4.3 4.34 -6 4 C-6 3.34 -6 2.68 -6 2 C-3 0 -3 0 0 0 Z " fill="#E8E8E8" transform="translate(743,716)"/>
<path d="M0 0 C0.99 0 1.98 0 3 0 C3 1.98 3 3.96 3 6 C1.35 6.66 -0.3 7.32 -2 8 C-1.67 7.42 -1.34 6.85 -1 6.25 C0.27 3.8 0.27 3.8 0 0 Z " fill="#E7E7E7" transform="translate(729,370)"/>
<path d="M0 0 C0.33 0.99 0.66 1.98 1 3 C0.01 2.67 -0.98 2.34 -2 2 C-1.34 1.34 -0.68 0.68 0 0 Z M-4 3 C-3.01 3.33 -2.02 3.66 -1 4 C-1 5.65 -1 7.3 -1 9 C-1.99 8.67 -2.98 8.34 -4 8 C-4 6.35 -4 4.7 -4 3 Z " fill="#E0E0E0" transform="translate(774,282)"/>
<path d="M0 0 C1.65 0 3.3 0 5 0 C4.34 2.31 3.68 4.62 3 7 C2.01 6.67 1.02 6.34 0 6 C0 4.02 0 2.04 0 0 Z " fill="#F0F0F0" transform="translate(341,740)"/>
<path d="M0 0 C0.66 0 1.32 0 2 0 C4.22 2.3 4.97 3.52 5.19 6.75 C5.13 7.49 5.06 8.24 5 9 C4.01 8.67 3.02 8.34 2 8 C1.27 6.15 1.27 6.15 0.81 3.94 C0.65 3.2 0.5 2.47 0.33 1.71 C0.22 1.15 0.11 0.58 0 0 Z " fill="#CBCBCB" transform="translate(607,607)"/>
<path d="M0 0 C0.99 0 1.98 0 3 0 C3 1.65 3 3.3 3 5 C3.99 5.33 4.98 5.66 6 6 C5.01 6.5 5.01 6.5 4 7 C1.88 6.06 1.88 6.06 0 5 C0 3.35 0 1.7 0 0 Z " fill="#C9C9C9" transform="translate(603,245)"/>
<path d="M0 0 C1.32 0 2.64 0 4 0 C4 1.65 4 3.3 4 5 C3.01 5.5 3.01 5.5 2 6 C1.01 5.01 0.02 4.02 -1 3 C-0.67 2.01 -0.34 1.02 0 0 Z " fill="#CFCDCF" transform="translate(541,467)"/>
<path d="M0 0 C0.66 0 1.32 0 2 0 C2.19 3.38 2.19 3.38 2 7 C1.01 7.66 0.02 8.32 -1 9 C-1.07 5.66 -1.07 3.2 0 0 Z " fill="#CCCCCC" transform="translate(304,425)"/>
<path d="M0 0 C0.99 0.33 1.98 0.66 3 1 C3 2.65 3 4.3 3 6 C2.01 6.33 1.02 6.66 0 7 C-1.12 2.25 -1.12 2.25 0 0 Z " fill="#D4D3D4" transform="translate(688,423)"/>
<path d="M0 0 C0.66 0 1.32 0 2 0 C2 2.31 2 4.62 2 7 C1.01 7 0.02 7 -1 7 C-1.04 5 -1.04 3 -1 1 C-0.67 0.67 -0.34 0.34 0 0 Z " fill="#D2D3D2" transform="translate(674,392)"/>
<path d="M0 0 C0.66 0 1.32 0 2 0 C1.43 3.96 0.19 6.67 -2 10 C-3.22 6.35 -2.57 5.39 -1 2 C-0.67 1.34 -0.34 0.68 0 0 Z " fill="#FFEDFF" transform="translate(356,714)"/>
<path d="M0 0 C0.33 0 0.66 0 1 0 C1 2.97 1 5.94 1 9 C0.01 9.5 0.01 9.5 -1 10 C-1.98 3.95 -1.98 3.95 -2 2 C-1.34 1.34 -0.68 0.68 0 0 Z " fill="#BCBCBC" transform="translate(581,596)"/>
<path d="M0 0 C0.66 0.33 1.32 0.66 2 1 C2 1.66 2 2.32 2 3 C2.66 3 3.32 3 4 3 C3.67 3.99 3.34 4.98 3 6 C1.68 5.67 0.36 5.34 -1 5 C-0.67 3.35 -0.34 1.7 0 0 Z " fill="#BEBEBE" transform="translate(735,721)"/>
<path d="M0 0 C0.99 0 1.98 0 3 0 C3 1.98 3 3.96 3 6 C2.01 6 1.02 6 0 6 C0 4.02 0 2.04 0 0 Z " fill="#CFCFCF" transform="translate(659,715)"/>
<path d="M0 0 C1.32 0 2.64 0 4 0 C4 1.65 4 3.3 4 5 C2.68 4.67 1.36 4.34 0 4 C0 2.68 0 1.36 0 0 Z " fill="#CECECE" transform="translate(638,671)"/>
<path d="M0 0 C0.99 0 1.98 0 3 0 C3 1.98 3 3.96 3 6 C2.01 6 1.02 6 0 6 C0 4.02 0 2.04 0 0 Z " fill="#D2D3D2" transform="translate(766,591)"/>
<path d="M0 0 C0.66 0.99 1.32 1.98 2 3 C1.67 3.99 1.34 4.98 1 6 C0.01 6 -0.98 6 -2 6 C-2 4.35 -2 2.7 -2 1 C-1.34 0.67 -0.68 0.34 0 0 Z " fill="#D3D3D2" transform="translate(719,487)"/>
<path d="M0 0 C0.99 0 1.98 0 3 0 C3 2.31 3 4.62 3 7 C0.75 4.95 -0 3.99 -1 1 C-0.67 0.67 -0.34 0.34 0 0 Z " fill="#DBDBDB" transform="translate(534,450)"/>
<path d="M0 0 C0.99 0 1.98 0 3 0 C3 1.98 3 3.96 3 6 C2.01 6 1.02 6 0 6 C0 4.02 0 2.04 0 0 Z " fill="#C7C7C7" transform="translate(632,305)"/>
<path d="M0 0 C0.66 0.33 1.32 0.66 2 1 C1.19 4.44 1.19 4.44 0 8 C-0.99 8.33 -1.98 8.66 -3 9 C-2.44 5.66 -1.65 2.97 0 0 Z " fill="#E2E2E2" transform="translate(785,259)"/>
<path d="M0 0 C1.32 0.33 2.64 0.66 4 1 C3.67 2.65 3.34 4.3 3 6 C2.01 5.67 1.02 5.34 0 5 C0 3.35 0 1.7 0 0 Z " fill="#D8D8D8" transform="translate(967,223)"/>
<path d="M0 0 C0.99 0.33 1.98 0.66 3 1 C3 2.65 3 4.3 3 6 C1.68 5.34 0.36 4.68 -1 4 C-0.67 2.68 -0.34 1.36 0 0 Z " fill="#DEDEDE" transform="translate(135,420)"/>
<path d="M0 0 C0.66 0 1.32 0 2 0 C2 0.99 2 1.98 2 3 C2.66 3 3.32 3 4 3 C4 3.66 4 4.32 4 5 C2.35 5.33 0.7 5.66 -1 6 C-0.67 4.02 -0.34 2.04 0 0 Z " fill="#CECFCB" transform="translate(930,299)"/>
<path d="M0 0 C0.99 0.33 1.98 0.66 3 1 C3 2.65 3 4.3 3 6 C2.01 6 1.02 6 0 6 C0 4.02 0 2.04 0 0 Z " fill="#C4C4BA" transform="translate(612,262)"/>
</svg>
