<svg xmlns="http://www.w3.org/2000/svg" width="800" height="600" viewBox="0 0 800 600">
  <defs>
    <linearGradient id="bgd" x1="0" y1="0" x2="1" y2="1">
      <stop offset="0" stop-color="#0f172a"/>
      <stop offset="1" stop-color="#14532d"/>
    </linearGradient>
    <linearGradient id="accd" x1="0" y1="0" x2="1" y2="0">
      <stop offset="0" stop-color="#a855f7"/>
      <stop offset="1" stop-color="#4ade80"/>
    </linearGradient>
  </defs>
  <rect width="800" height="600" fill="url(#bgd)"/>
  <circle cx="120" cy="100" r="150" fill="#4ade80" opacity="0.06"/>
  <circle cx="700" cy="500" r="170" fill="#a855f7" opacity="0.08"/>
  <!-- bot avatar -->
  <rect x="100" y="140" width="110" height="100" rx="20" fill="#312e81"/>
  <circle cx="135" cy="180" r="10" fill="#c4b5fd"/>
  <circle cx="175" cy="180" r="10" fill="#c4b5fd"/>
  <rect x="130" y="205" width="50" height="8" rx="4" fill="#c4b5fd"/>
  <line x1="155" y1="120" x2="155" y2="140" stroke="#c4b5fd" stroke-width="5"/>
  <circle cx="155" cy="115" r="7" fill="#a855f7"/>
  <!-- chat flow -->
  <rect x="240" y="130" width="260" height="50" rx="12" fill="#334155"/>
  <rect x="260" y="150" width="200" height="10" rx="5" fill="#94a3b8"/>
  <rect x="300" y="200" width="260" height="50" rx="12" fill="#166534"/>
  <rect x="320" y="220" width="180" height="10" rx="5" fill="#86efac"/>
  <rect x="240" y="270" width="260" height="50" rx="12" fill="#334155"/>
  <rect x="260" y="290" width="160" height="10" rx="5" fill="#94a3b8"/>
  <!-- CPE document -->
  <g transform="rotate(4 640 260)">
    <rect x="560" y="150" width="160" height="210" rx="10" fill="#f8fafc"/>
    <rect x="560" y="150" width="160" height="40" rx="10" fill="#4ade80"/>
    <text x="575" y="177" font-family="Segoe UI, Arial, sans-serif" font-size="18" font-weight="700" fill="#0f172a">CPE ✓</text>
    <g fill="#cbd5e1">
      <rect x="578" y="210" width="124" height="10" rx="5"/>
      <rect x="578" y="232" width="100" height="10" rx="5"/>
      <rect x="578" y="254" width="115" height="10" rx="5"/>
      <rect x="578" y="276" width="90" height="10" rx="5"/>
    </g>
    <text x="578" y="330" font-family="Consolas, monospace" font-size="14" fill="#475569">CTG 9344486436</text>
  </g>
  <!-- arrow -->
  <g stroke="#4ade80" stroke-width="5" stroke-linecap="round" fill="none">
    <line x1="505" y1="295" x2="555" y2="295"/>
    <path d="M542 280 L562 295 L542 310"/>
  </g>
  <text x="100" y="500" font-family="Segoe UI, Arial, sans-serif" font-size="42" font-weight="700" fill="#ffffff">Bot Carta de Porte</text>
  <text x="100" y="540" font-family="Segoe UI, Arial, sans-serif" font-size="22" fill="#94a3b8">WhatsApp · ARCA/WSCPE · Emisión guiada de CPE</text>
  <rect x="100" y="560" width="220" height="6" rx="3" fill="url(#accd)"/>
</svg>
