<svg xmlns="http://www.w3.org/2000/svg" width="800" height="600" viewBox="0 0 800 600">
  <defs>
    <linearGradient id="bg2" x1="0" y1="0" x2="1" y2="1">
      <stop offset="0" stop-color="#0f172a"/>
      <stop offset="1" stop-color="#172554"/>
    </linearGradient>
    <linearGradient id="accent2" x1="0" y1="0" x2="1" y2="0">
      <stop offset="0" stop-color="#a855f7"/>
      <stop offset="1" stop-color="#38bdf8"/>
    </linearGradient>
  </defs>
  <rect width="800" height="600" fill="url(#bg2)"/>
  <circle cx="700" cy="520" r="180" fill="#38bdf8" opacity="0.07"/>
  <circle cx="120" cy="80" r="150" fill="#a855f7" opacity="0.08"/>
  <!-- bank statement column -->
  <rect x="100" y="120" width="260" height="300" rx="16" fill="#1e293b"/>
  <text x="120" y="160" font-family="Segoe UI, Arial, sans-serif" font-size="20" font-weight="600" fill="#94a3b8">Extracto</text>
  <g fill="#334155">
    <rect x="120" y="185" width="220" height="34" rx="8"/>
    <rect x="120" y="229" width="220" height="34" rx="8"/>
    <rect x="120" y="273" width="220" height="34" rx="8"/>
    <rect x="120" y="317" width="220" height="34" rx="8"/>
    <rect x="120" y="361" width="220" height="34" rx="8"/>
  </g>
  <!-- ledger column -->
  <rect x="440" y="120" width="260" height="300" rx="16" fill="#1e293b"/>
  <text x="460" y="160" font-family="Segoe UI, Arial, sans-serif" font-size="20" font-weight="600" fill="#94a3b8">Sistema</text>
  <g fill="#334155">
    <rect x="460" y="185" width="220" height="34" rx="8"/>
    <rect x="460" y="229" width="220" height="34" rx="8"/>
    <rect x="460" y="273" width="220" height="34" rx="8"/>
    <rect x="460" y="317" width="220" height="34" rx="8"/>
    <rect x="460" y="361" width="220" height="34" rx="8"/>
  </g>
  <!-- match links -->
  <g stroke="url(#accent2)" stroke-width="4" fill="none">
    <path d="M340 202 C 400 202 400 202 460 202"/>
    <path d="M340 246 C 400 246 400 334 460 334"/>
    <path d="M340 334 C 400 334 400 246 460 246"/>
  </g>
  <g fill="#22c55e">
    <circle cx="340" cy="202" r="7"/><circle cx="460" cy="202" r="7"/>
    <circle cx="340" cy="246" r="7"/><circle cx="460" cy="334" r="7"/>
    <circle cx="340" cy="334" r="7"/><circle cx="460" cy="246" r="7"/>
  </g>
  <text x="100" y="500" font-family="Segoe UI, Arial, sans-serif" font-size="42" font-weight="700" fill="#ffffff">Conciliación Bancaria</text>
  <text x="100" y="540" font-family="Segoe UI, Arial, sans-serif" font-size="22" fill="#94a3b8">Matching automático · IA asistida · Multi-banco</text>
  <rect x="100" y="560" width="220" height="6" rx="3" fill="url(#accent2)"/>
</svg>
