<svg xmlns="http://www.w3.org/2000/svg" width="800" height="600" viewBox="0 0 800 600">
  <defs>
    <linearGradient id="bgf" x1="0" y1="0" x2="1" y2="1">
      <stop offset="0" stop-color="#0f172a"/>
      <stop offset="1" stop-color="#164e63"/>
    </linearGradient>
    <linearGradient id="accf" x1="0" y1="0" x2="1" y2="0">
      <stop offset="0" stop-color="#a855f7"/>
      <stop offset="1" stop-color="#22d3ee"/>
    </linearGradient>
  </defs>
  <rect width="800" height="600" fill="url(#bgf)"/>
  <circle cx="120" cy="110" r="150" fill="#22d3ee" opacity="0.06"/>
  <circle cx="690" cy="500" r="160" fill="#a855f7" opacity="0.08"/>
  <!-- stack of payslips -->
  <g>
    <rect x="130" y="180" width="170" height="220" rx="10" fill="#1e293b" transform="rotate(-6 215 290)"/>
    <rect x="150" y="165" width="170" height="220" rx="10" fill="#334155" transform="rotate(-2 235 275)"/>
    <rect x="170" y="150" width="170" height="220" rx="10" fill="#f8fafc"/>
    <rect x="170" y="150" width="170" height="40" rx="10" fill="#22d3ee"/>
    <text x="188" y="177" font-family="Segoe UI, Arial, sans-serif" font-size="16" font-weight="700" fill="#0f172a">RECIBO</text>
    <g fill="#cbd5e1">
      <rect x="190" y="210" width="130" height="10" rx="5"/>
      <rect x="190" y="232" width="100" height="10" rx="5"/>
      <rect x="190" y="254" width="120" height="10" rx="5"/>
      <rect x="190" y="276" width="90" height="10" rx="5"/>
    </g>
    <!-- signature -->
    <path d="M190 330 q 15 -18 30 0 t 30 -6 t 35 4" stroke="#a855f7" stroke-width="4" fill="none" stroke-linecap="round"/>
    <circle cx="305" cy="340" r="16" fill="#a855f7"/>
    <path d="M298 340 l5 6 l10 -12" stroke="#f8fafc" stroke-width="3.5" fill="none" stroke-linecap="round" stroke-linejoin="round"/>
  </g>
  <!-- lock + OTP -->
  <g>
    <rect x="450" y="200" width="240" height="150" rx="16" fill="#1e293b"/>
    <rect x="545" y="165" width="50" height="55" rx="12" fill="none" stroke="#22d3ee" stroke-width="8"/>
    <rect x="520" y="210" width="100" height="80" rx="12" fill="#22d3ee"/>
    <circle cx="570" cy="245" r="10" fill="#0f172a"/>
    <rect x="565" y="250" width="10" height="22" rx="5" fill="#0f172a"/>
    <g font-family="Consolas, monospace" font-size="24" fill="#7dd3fc">
      <text x="487" y="330">• • 4 8 1 3</text>
    </g>
  </g>
  <!-- whatsapp bubble -->
  <circle cx="680" cy="160" r="30" fill="#22c55e"/>
  <path d="M668 160 a12 12 0 1 1 5 9.5 l-8 2.5 2.5 -7 a12 12 0 0 1 0.5 -5" fill="#0f172a"/>
  <text x="100" y="500" font-family="Segoe UI, Arial, sans-serif" font-size="42" font-weight="700" fill="#ffffff">Recibos de Sueldo</text>
  <text x="100" y="540" font-family="Segoe UI, Arial, sans-serif" font-size="22" fill="#94a3b8">Firma digital · Envío por WhatsApp · Portal OTP</text>
  <rect x="100" y="560" width="220" height="6" rx="3" fill="url(#accf)"/>
</svg>
