<svg xmlns="http://www.w3.org/2000/svg" width="800" height="600" viewBox="0 0 800 600">
  <defs>
    <linearGradient id="bg3" x1="0" y1="0" x2="1" y2="1">
      <stop offset="0" stop-color="#0f172a"/>
      <stop offset="1" stop-color="#3b0764"/>
    </linearGradient>
    <linearGradient id="accent3" x1="0" y1="0" x2="1" y2="0">
      <stop offset="0" stop-color="#a855f7"/>
      <stop offset="1" stop-color="#f59e0b"/>
    </linearGradient>
  </defs>
  <rect width="800" height="600" fill="url(#bg3)"/>
  <circle cx="120" cy="500" r="170" fill="#f59e0b" opacity="0.06"/>
  <circle cx="700" cy="100" r="160" fill="#a855f7" opacity="0.09"/>
  <!-- handwritten note -->
  <g transform="rotate(-6 240 260)">
    <rect x="120" y="130" width="240" height="280" rx="10" fill="#fef3c7"/>
    <g stroke="#92400e" stroke-width="4" stroke-linecap="round" fill="none" opacity="0.8">
      <path d="M145 180 q 30 -12 60 0 t 60 -4 t 60 6"/>
      <path d="M145 230 q 40 -10 80 -2 t 90 4"/>
      <path d="M145 280 q 25 -8 55 0 t 65 -6"/>
      <path d="M145 330 q 35 -6 70 2 t 80 -4"/>
    </g>
  </g>
  <!-- scan beam / arrow -->
  <g stroke="#a855f7" stroke-width="6" stroke-linecap="round">
    <line x1="395" y1="270" x2="455" y2="270"/>
    <path d="M440 250 L465 270 L440 290" fill="none"/>
  </g>
  <!-- digital table -->
  <rect x="480" y="140" width="230" height="260" rx="14" fill="#1e293b"/>
  <rect x="480" y="140" width="230" height="46" rx="14" fill="#312e81"/>
  <g fill="#c4b5fd">
    <rect x="500" y="205" width="120" height="12" rx="6"/>
    <rect x="640" y="205" width="50" height="12" rx="6"/>
    <rect x="500" y="245" width="140" height="12" rx="6"/>
    <rect x="640" y="245" width="50" height="12" rx="6"/>
    <rect x="500" y="285" width="110" height="12" rx="6"/>
    <rect x="640" y="285" width="50" height="12" rx="6"/>
    <rect x="500" y="325" width="130" height="12" rx="6"/>
    <rect x="640" y="325" width="50" height="12" rx="6"/>
  </g>
  <!-- check -->
  <circle cx="710" cy="410" r="26" fill="#22c55e"/>
  <path d="M698 410 l8 9 l16 -18" stroke="#0f172a" stroke-width="5" fill="none" stroke-linecap="round" stroke-linejoin="round"/>
  <text x="100" y="500" font-family="Segoe UI, Arial, sans-serif" font-size="42" font-weight="700" fill="#ffffff">Vales OCR</text>
  <text x="100" y="540" font-family="Segoe UI, Arial, sans-serif" font-size="22" fill="#94a3b8">Digitalización con IA · Match de clientes · Carga al ERP</text>
  <rect x="100" y="560" width="220" height="6" rx="3" fill="url(#accent3)"/>
</svg>
